<?xml version="1.0" encoding="utf-8" standalone="no"?>
<!DOCTYPE svg PUBLIC "-//W3C//DTD SVG 1.1//EN"
  "http://www.w3.org/Graphics/SVG/1.1/DTD/svg11.dtd">
<!-- Created with matplotlib (http://matplotlib.org/) -->
<svg height="229.338273pt" version="1.1" viewBox="0 0 424.8 229.338273" width="424.8pt" xmlns="http://www.w3.org/2000/svg" xmlns:xlink="http://www.w3.org/1999/xlink">
 <defs>
  <style type="text/css">
*{stroke-linecap:butt;stroke-linejoin:round;}
  </style>
 </defs>
 <g id="figure_1">
  <g id="patch_1">
   <path d="M 0 229.338273 
L 424.8 229.338273 
L 424.8 0 
L 0 0 
z
" style="fill:#ffffff;"/>
  </g>
  <g id="axes_1">
   <g id="patch_2">
    <path d="M 10.7 218.638273 
L 203.5 218.638273 
L 203.5 10.7 
L 10.7 10.7 
z
" style="fill:#ffffff;"/>
   </g>
   <g id="patch_3">
    <path clip-path="url(#pde6e611a2f)" d="M 114.515385 47.793307 
C 114.515385 46.819527 114.323571 45.855217 113.950922 44.955562 
C 113.578273 44.055907 113.032035 43.238404 112.343469 42.549838 
C 111.654903 41.861272 110.8374 41.315034 109.937745 40.942384 
C 109.03809 40.569735 108.073779 40.377922 107.1 40.377922 
C 106.126221 40.377922 105.16191 40.569735 104.262255 40.942384 
C 103.3626 41.315034 102.545097 41.861272 101.856531 42.549838 
C 101.167965 43.238404 100.621727 44.055907 100.249078 44.955562 
C 99.876429 45.855217 99.684615 46.819527 99.684615 47.793307 
C 99.684615 48.767086 99.876429 49.731397 100.249078 50.631051 
C 100.621727 51.530706 101.167965 52.348209 101.856531 53.036775 
C 102.545097 53.725341 103.3626 54.271579 104.262255 54.644229 
C 105.16191 55.016878 106.126221 55.208691 107.1 55.208691 
C 108.073779 55.208691 109.03809 55.016878 109.937745 54.644229 
C 110.8374 54.271579 111.654903 53.725341 112.343469 53.036775 
C 113.032035 52.348209 113.578273 51.530706 113.950922 50.631051 
C 114.323571 49.731397 114.515385 48.767086 114.515385 47.793307 
M 107.1 47.793307 
M 114.515385 47.793307 
z
"/>
   </g>
   <g id="patch_4">
    <path clip-path="url(#pde6e611a2f)" d="M 166.950072 69.512465 
C 166.950072 68.538686 166.758259 67.574375 166.38561 66.67472 
C 166.01296 65.775066 165.466722 64.957563 164.778156 64.268996 
C 164.08959 63.58043 163.272087 63.034192 162.372432 62.661543 
C 161.472777 62.288894 160.508467 62.097081 159.534687 62.097081 
C 158.560908 62.097081 157.596597 62.288894 156.696943 62.661543 
C 155.797288 63.034192 154.979785 63.58043 154.291219 64.268996 
C 153.602653 64.957563 153.056415 65.775066 152.683765 66.67472 
C 152.311116 67.574375 152.119303 68.538686 152.119303 69.512465 
C 152.119303 70.486245 152.311116 71.450555 152.683765 72.35021 
C 153.056415 73.249865 153.602653 74.067368 154.291219 74.755934 
C 154.979785 75.4445 155.797288 75.990738 156.696943 76.363387 
C 157.596597 76.736037 158.560908 76.92785 159.534687 76.92785 
C 160.508467 76.92785 161.472777 76.736037 162.372432 76.363387 
C 163.272087 75.990738 164.08959 75.4445 164.778156 74.755934 
C 165.466722 74.067368 166.01296 73.249865 166.38561 72.35021 
C 166.758259 71.450555 166.950072 70.486245 166.950072 69.512465 
M 159.534687 69.512465 
M 166.950072 69.512465 
z
"/>
   </g>
   <g id="patch_5">
    <path clip-path="url(#pde6e611a2f)" d="M 188.669231 121.947153 
C 188.669231 120.973373 188.477417 120.009063 188.104768 119.109408 
C 187.732119 118.209753 187.185881 117.39225 186.497315 116.703684 
C 185.808749 116.015118 184.991246 115.46888 184.091591 115.096231 
C 183.191936 114.723581 182.227626 114.531768 181.253846 114.531768 
C 180.280067 114.531768 179.315756 114.723581 178.416101 115.096231 
C 177.516446 115.46888 176.698943 116.015118 176.010377 116.703684 
C 175.321811 117.39225 174.775573 118.209753 174.402924 119.109408 
C 174.030275 120.009063 173.838462 120.973373 173.838462 121.947153 
C 173.838462 122.920932 174.030275 123.885243 174.402924 124.784898 
C 174.775573 125.684552 175.321811 126.502055 176.010377 127.190621 
C 176.698943 127.879187 177.516446 128.425426 178.416101 128.798075 
C 179.315756 129.170724 180.280067 129.362537 181.253846 129.362537 
C 182.227626 129.362537 183.191936 129.170724 184.091591 128.798075 
C 184.991246 128.425426 185.808749 127.879187 186.497315 127.190621 
C 187.185881 126.502055 187.732119 125.684552 188.104768 124.784898 
C 188.477417 123.885243 188.669231 122.920932 188.669231 121.947153 
M 181.253846 121.947153 
M 188.669231 121.947153 
z
"/>
   </g>
   <g id="patch_6">
    <path clip-path="url(#pde6e611a2f)" d="M 166.950072 174.38184 
C 166.950072 173.408061 166.758259 172.44375 166.38561 171.544095 
C 166.01296 170.64444 165.466722 169.826937 164.778156 169.138371 
C 164.08959 168.449805 163.272087 167.903567 162.372432 167.530918 
C 161.472777 167.158269 160.508467 166.966456 159.534687 166.966456 
C 158.560908 166.966456 157.596597 167.158269 156.696943 167.530918 
C 155.797288 167.903567 154.979785 168.449805 154.291219 169.138371 
C 153.602653 169.826937 153.056415 170.64444 152.683765 171.544095 
C 152.311116 172.44375 152.119303 173.408061 152.119303 174.38184 
C 152.119303 175.35562 152.311116 176.31993 152.683765 177.219585 
C 153.056415 178.11924 153.602653 178.936743 154.291219 179.625309 
C 154.979785 180.313875 155.797288 180.860113 156.696943 181.232762 
C 157.596597 181.605411 158.560908 181.797225 159.534687 181.797225 
C 160.508467 181.797225 161.472777 181.605411 162.372432 181.232762 
C 163.272087 180.860113 164.08959 180.313875 164.778156 179.625309 
C 165.466722 178.936743 166.01296 178.11924 166.38561 177.219585 
C 166.758259 176.31993 166.950072 175.35562 166.950072 174.38184 
M 159.534687 174.38184 
M 166.950072 174.38184 
z
"/>
   </g>
   <g id="patch_7">
    <path clip-path="url(#pde6e611a2f)" d="M 114.515385 196.100999 
C 114.515385 195.127219 114.323571 194.162909 113.950922 193.263254 
C 113.578273 192.363599 113.032035 191.546096 112.343469 190.85753 
C 111.654903 190.168964 110.8374 189.622726 109.937745 189.250077 
C 109.03809 188.877428 108.073779 188.685614 107.1 188.685614 
C 106.126221 188.685614 105.16191 188.877428 104.262255 189.250077 
C 103.3626 189.622726 102.545097 190.168964 101.856531 190.85753 
C 101.167965 191.546096 100.621727 192.363599 100.249078 193.263254 
C 99.876429 194.162909 99.684615 195.127219 99.684615 196.100999 
C 99.684615 197.074778 99.876429 198.039089 100.249078 198.938744 
C 100.621727 199.838399 101.167965 200.655902 101.856531 201.344468 
C 102.545097 202.033034 103.3626 202.579272 104.262255 202.951921 
C 105.16191 203.32457 106.126221 203.516383 107.1 203.516383 
C 108.073779 203.516383 109.03809 203.32457 109.937745 202.951921 
C 110.8374 202.579272 111.654903 202.033034 112.343469 201.344468 
C 113.032035 200.655902 113.578273 199.838399 113.950922 198.938744 
C 114.323571 198.039089 114.515385 197.074778 114.515385 196.100999 
M 107.1 196.100999 
M 114.515385 196.100999 
z
"/>
   </g>
   <g id="patch_8">
    <path clip-path="url(#pde6e611a2f)" d="M 62.080697 174.38184 
C 62.080697 173.408061 61.888884 172.44375 61.516235 171.544095 
C 61.143585 170.64444 60.597347 169.826937 59.908781 169.138371 
C 59.220215 168.449805 58.402712 167.903567 57.503057 167.530918 
C 56.603403 167.158269 55.639092 166.966456 54.665313 166.966456 
C 53.691533 166.966456 52.727223 167.158269 51.827568 167.530918 
C 50.927913 167.903567 50.11041 168.449805 49.421844 169.138371 
C 48.733278 169.826937 48.18704 170.64444 47.81439 171.544095 
C 47.441741 172.44375 47.249928 173.408061 47.249928 174.38184 
C 47.249928 175.35562 47.441741 176.31993 47.81439 177.219585 
C 48.18704 178.11924 48.733278 178.936743 49.421844 179.625309 
C 50.11041 180.313875 50.927913 180.860113 51.827568 181.232762 
C 52.727223 181.605411 53.691533 181.797225 54.665313 181.797225 
C 55.639092 181.797225 56.603403 181.605411 57.503057 181.232762 
C 58.402712 180.860113 59.220215 180.313875 59.908781 179.625309 
C 60.597347 178.936743 61.143585 178.11924 61.516235 177.219585 
C 61.888884 176.31993 62.080697 175.35562 62.080697 174.38184 
M 54.665313 174.38184 
M 62.080697 174.38184 
z
"/>
   </g>
   <g id="patch_9">
    <path clip-path="url(#pde6e611a2f)" d="M 40.361538 121.947153 
C 40.361538 120.973373 40.169725 120.009063 39.797076 119.109408 
C 39.424427 118.209753 38.878189 117.39225 38.189623 116.703684 
C 37.501057 116.015118 36.683554 115.46888 35.783899 115.096231 
C 34.884244 114.723581 33.919933 114.531768 32.946154 114.531768 
C 31.972374 114.531768 31.008064 114.723581 30.108409 115.096231 
C 29.208754 115.46888 28.391251 116.015118 27.702685 116.703684 
C 27.014119 117.39225 26.467881 118.209753 26.095232 119.109408 
C 25.722583 120.009063 25.530769 120.973373 25.530769 121.947153 
C 25.530769 122.920932 25.722583 123.885243 26.095232 124.784898 
C 26.467881 125.684552 27.014119 126.502055 27.702685 127.190621 
C 28.391251 127.879187 29.208754 128.425426 30.108409 128.798075 
C 31.008064 129.170724 31.972374 129.362537 32.946154 129.362537 
C 33.919933 129.362537 34.884244 129.170724 35.783899 128.798075 
C 36.683554 128.425426 37.501057 127.879187 38.189623 127.190621 
C 38.878189 126.502055 39.424427 125.684552 39.797076 124.784898 
C 40.169725 123.885243 40.361538 122.920932 40.361538 121.947153 
M 32.946154 121.947153 
M 40.361538 121.947153 
z
"/>
   </g>
   <g id="patch_10">
    <path clip-path="url(#pde6e611a2f)" d="M 62.080697 69.512465 
C 62.080697 68.538686 61.888884 67.574375 61.516235 66.67472 
C 61.143585 65.775066 60.597347 64.957563 59.908781 64.268996 
C 59.220215 63.58043 58.402712 63.034192 57.503057 62.661543 
C 56.603403 62.288894 55.639092 62.097081 54.665313 62.097081 
C 53.691533 62.097081 52.727223 62.288894 51.827568 62.661543 
C 50.927913 63.034192 50.11041 63.58043 49.421844 64.268996 
C 48.733278 64.957563 48.18704 65.775066 47.81439 66.67472 
C 47.441741 67.574375 47.249928 68.538686 47.249928 69.512465 
C 47.249928 70.486245 47.441741 71.450555 47.81439 72.35021 
C 48.18704 73.249865 48.733278 74.067368 49.421844 74.755934 
C 50.11041 75.4445 50.927913 75.990738 51.827568 76.363387 
C 52.727223 76.736037 53.691533 76.92785 54.665313 76.92785 
C 55.639092 76.92785 56.603403 76.736037 57.503057 76.363387 
C 58.402712 75.990738 59.220215 75.4445 59.908781 74.755934 
C 60.597347 74.067368 61.143585 73.249865 61.516235 72.35021 
C 61.888884 71.450555 62.080697 70.486245 62.080697 69.512465 
M 54.665313 69.512465 
M 62.080697 69.512465 
z
"/>
   </g>
   <g id="matplotlib.axis_1"/>
   <g id="matplotlib.axis_2"/>
   <g id="text_1">
    <!-- 1 -->
    <defs>
     <path d="M 12.40625 8.296875 
L 28.515625 8.296875 
L 28.515625 63.921875 
L 10.984375 60.40625 
L 10.984375 69.390625 
L 28.421875 72.90625 
L 38.28125 72.90625 
L 38.28125 8.296875 
L 54.390625 8.296875 
L 54.390625 0 
L 12.40625 0 
z
" id="DejaVuSans-31"/>
    </defs>
    <g style="fill:#0000ff;" transform="translate(102.328125 33.393908)scale(0.15 -0.15)">
     <use xlink:href="#DejaVuSans-31"/>
    </g>
   </g>
   <g id="text_2">
    <!-- 2 -->
    <defs>
     <path d="M 19.1875 8.296875 
L 53.609375 8.296875 
L 53.609375 0 
L 7.328125 0 
L 7.328125 8.296875 
Q 12.9375 14.109375 22.625 23.890625 
Q 32.328125 33.6875 34.8125 36.53125 
Q 39.546875 41.84375 41.421875 45.53125 
Q 43.3125 49.21875 43.3125 52.78125 
Q 43.3125 58.59375 39.234375 62.25 
Q 35.15625 65.921875 28.609375 65.921875 
Q 23.96875 65.921875 18.8125 64.3125 
Q 13.671875 62.703125 7.8125 59.421875 
L 7.8125 69.390625 
Q 13.765625 71.78125 18.9375 73 
Q 24.125 74.21875 28.421875 74.21875 
Q 39.75 74.21875 46.484375 68.546875 
Q 53.21875 62.890625 53.21875 53.421875 
Q 53.21875 48.921875 51.53125 44.890625 
Q 49.859375 40.875 45.40625 35.40625 
Q 44.1875 33.984375 37.640625 27.21875 
Q 31.109375 20.453125 19.1875 8.296875 
z
" id="DejaVuSans-32"/>
    </defs>
    <g style="fill:#0000ff;" transform="translate(167.871484 60.542856)scale(0.15 -0.15)">
     <use xlink:href="#DejaVuSans-32"/>
    </g>
   </g>
   <g id="text_3">
    <!-- 3 -->
    <defs>
     <path d="M 40.578125 39.3125 
Q 47.65625 37.796875 51.625 33 
Q 55.609375 28.21875 55.609375 21.1875 
Q 55.609375 10.40625 48.1875 4.484375 
Q 40.765625 -1.421875 27.09375 -1.421875 
Q 22.515625 -1.421875 17.65625 -0.515625 
Q 12.796875 0.390625 7.625 2.203125 
L 7.625 11.71875 
Q 11.71875 9.328125 16.59375 8.109375 
Q 21.484375 6.890625 26.8125 6.890625 
Q 36.078125 6.890625 40.9375 10.546875 
Q 45.796875 14.203125 45.796875 21.1875 
Q 45.796875 27.640625 41.28125 31.265625 
Q 36.765625 34.90625 28.71875 34.90625 
L 20.21875 34.90625 
L 20.21875 43.015625 
L 29.109375 43.015625 
Q 36.375 43.015625 40.234375 45.921875 
Q 44.09375 48.828125 44.09375 54.296875 
Q 44.09375 59.90625 40.109375 62.90625 
Q 36.140625 65.921875 28.71875 65.921875 
Q 24.65625 65.921875 20.015625 65.03125 
Q 15.375 64.15625 9.8125 62.3125 
L 9.8125 71.09375 
Q 15.4375 72.65625 20.34375 73.4375 
Q 25.25 74.21875 29.59375 74.21875 
Q 40.828125 74.21875 47.359375 69.109375 
Q 53.90625 64.015625 53.90625 55.328125 
Q 53.90625 49.265625 50.4375 45.09375 
Q 46.96875 40.921875 40.578125 39.3125 
z
" id="DejaVuSans-33"/>
    </defs>
    <g style="fill:#0000ff;" transform="translate(195.020433 126.086215)scale(0.15 -0.15)">
     <use xlink:href="#DejaVuSans-33"/>
    </g>
   </g>
   <g id="text_4">
    <!-- 4 -->
    <defs>
     <path d="M 37.796875 64.3125 
L 12.890625 25.390625 
L 37.796875 25.390625 
z
M 35.203125 72.90625 
L 47.609375 72.90625 
L 47.609375 25.390625 
L 58.015625 25.390625 
L 58.015625 17.1875 
L 47.609375 17.1875 
L 47.609375 0 
L 37.796875 0 
L 37.796875 17.1875 
L 4.890625 17.1875 
L 4.890625 26.703125 
z
" id="DejaVuSans-34"/>
    </defs>
    <g style="fill:#0000ff;" transform="translate(167.871484 191.629575)scale(0.15 -0.15)">
     <use xlink:href="#DejaVuSans-34"/>
    </g>
   </g>
   <g id="text_5">
    <!-- 5 -->
    <defs>
     <path d="M 10.796875 72.90625 
L 49.515625 72.90625 
L 49.515625 64.59375 
L 19.828125 64.59375 
L 19.828125 46.734375 
Q 21.96875 47.46875 24.109375 47.828125 
Q 26.265625 48.1875 28.421875 48.1875 
Q 40.625 48.1875 47.75 41.5 
Q 54.890625 34.8125 54.890625 23.390625 
Q 54.890625 11.625 47.5625 5.09375 
Q 40.234375 -1.421875 26.90625 -1.421875 
Q 22.3125 -1.421875 17.546875 -0.640625 
Q 12.796875 0.140625 7.71875 1.703125 
L 7.71875 11.625 
Q 12.109375 9.234375 16.796875 8.0625 
Q 21.484375 6.890625 26.703125 6.890625 
Q 35.15625 6.890625 40.078125 11.328125 
Q 45.015625 15.765625 45.015625 23.390625 
Q 45.015625 31 40.078125 35.4375 
Q 35.15625 39.890625 26.703125 39.890625 
Q 22.75 39.890625 18.8125 39.015625 
Q 14.890625 38.140625 10.796875 36.28125 
z
" id="DejaVuSans-35"/>
    </defs>
    <g style="fill:#0000ff;" transform="translate(102.328125 218.778523)scale(0.15 -0.15)">
     <use xlink:href="#DejaVuSans-35"/>
    </g>
   </g>
   <g id="text_6">
    <!-- 6 -->
    <defs>
     <path d="M 33.015625 40.375 
Q 26.375 40.375 22.484375 35.828125 
Q 18.609375 31.296875 18.609375 23.390625 
Q 18.609375 15.53125 22.484375 10.953125 
Q 26.375 6.390625 33.015625 6.390625 
Q 39.65625 6.390625 43.53125 10.953125 
Q 47.40625 15.53125 47.40625 23.390625 
Q 47.40625 31.296875 43.53125 35.828125 
Q 39.65625 40.375 33.015625 40.375 
z
M 52.59375 71.296875 
L 52.59375 62.3125 
Q 48.875 64.0625 45.09375 64.984375 
Q 41.3125 65.921875 37.59375 65.921875 
Q 27.828125 65.921875 22.671875 59.328125 
Q 17.53125 52.734375 16.796875 39.40625 
Q 19.671875 43.65625 24.015625 45.921875 
Q 28.375 48.1875 33.59375 48.1875 
Q 44.578125 48.1875 50.953125 41.515625 
Q 57.328125 34.859375 57.328125 23.390625 
Q 57.328125 12.15625 50.6875 5.359375 
Q 44.046875 -1.421875 33.015625 -1.421875 
Q 20.359375 -1.421875 13.671875 8.265625 
Q 6.984375 17.96875 6.984375 36.375 
Q 6.984375 53.65625 15.1875 63.9375 
Q 23.390625 74.21875 37.203125 74.21875 
Q 40.921875 74.21875 44.703125 73.484375 
Q 48.484375 72.75 52.59375 71.296875 
z
" id="DejaVuSans-36"/>
    </defs>
    <g style="fill:#0000ff;" transform="translate(36.784766 191.629575)scale(0.15 -0.15)">
     <use xlink:href="#DejaVuSans-36"/>
    </g>
   </g>
   <g id="text_7">
    <!-- 7 -->
    <defs>
     <path d="M 8.203125 72.90625 
L 55.078125 72.90625 
L 55.078125 68.703125 
L 28.609375 0 
L 18.3125 0 
L 43.21875 64.59375 
L 8.203125 64.59375 
z
" id="DejaVuSans-37"/>
    </defs>
    <g style="fill:#0000ff;" transform="translate(9.635817 126.086215)scale(0.15 -0.15)">
     <use xlink:href="#DejaVuSans-37"/>
    </g>
   </g>
   <g id="text_8">
    <!-- 8 -->
    <defs>
     <path d="M 31.78125 34.625 
Q 24.75 34.625 20.71875 30.859375 
Q 16.703125 27.09375 16.703125 20.515625 
Q 16.703125 13.921875 20.71875 10.15625 
Q 24.75 6.390625 31.78125 6.390625 
Q 38.8125 6.390625 42.859375 10.171875 
Q 46.921875 13.96875 46.921875 20.515625 
Q 46.921875 27.09375 42.890625 30.859375 
Q 38.875 34.625 31.78125 34.625 
z
M 21.921875 38.8125 
Q 15.578125 40.375 12.03125 44.71875 
Q 8.5 49.078125 8.5 55.328125 
Q 8.5 64.0625 14.71875 69.140625 
Q 20.953125 74.21875 31.78125 74.21875 
Q 42.671875 74.21875 48.875 69.140625 
Q 55.078125 64.0625 55.078125 55.328125 
Q 55.078125 49.078125 51.53125 44.71875 
Q 48 40.375 41.703125 38.8125 
Q 48.828125 37.15625 52.796875 32.3125 
Q 56.78125 27.484375 56.78125 20.515625 
Q 56.78125 9.90625 50.3125 4.234375 
Q 43.84375 -1.421875 31.78125 -1.421875 
Q 19.734375 -1.421875 13.25 4.234375 
Q 6.78125 9.90625 6.78125 20.515625 
Q 6.78125 27.484375 10.78125 32.3125 
Q 14.796875 37.15625 21.921875 38.8125 
z
M 18.3125 54.390625 
Q 18.3125 48.734375 21.84375 45.5625 
Q 25.390625 42.390625 31.78125 42.390625 
Q 38.140625 42.390625 41.71875 45.5625 
Q 45.3125 48.734375 45.3125 54.390625 
Q 45.3125 60.0625 41.71875 63.234375 
Q 38.140625 66.40625 31.78125 66.40625 
Q 25.390625 66.40625 21.84375 63.234375 
Q 18.3125 60.0625 18.3125 54.390625 
z
" id="DejaVuSans-38"/>
    </defs>
    <g style="fill:#0000ff;" transform="translate(36.784766 60.542856)scale(0.15 -0.15)">
     <use xlink:href="#DejaVuSans-38"/>
    </g>
   </g>
   <g id="patch_11">
    <path clip-path="url(#pde6e611a2f)" d="M 107.1 196.100999 
C 126.76583 196.100999 145.628846 188.287682 159.534687 174.38184 
C 173.440529 160.475999 181.253846 141.612983 181.253846 121.947153 
C 181.253846 102.281323 173.440529 83.418307 159.534687 69.512465 
C 145.628846 55.606624 126.76583 47.793307 107.1 47.793307 
C 87.43417 47.793307 68.571154 55.606624 54.665313 69.512465 
C 40.759471 83.418307 32.946154 102.281323 32.946154 121.947153 
C 32.946154 141.612983 40.759471 160.475999 54.665313 174.38184 
C 68.571154 188.287682 87.43417 196.100999 107.1 196.100999 
z
" style="fill:none;stroke:#0000ff;stroke-linejoin:miter;"/>
   </g>
   <g id="patch_12">
    <path clip-path="url(#pde6e611a2f)" d="M 184.844597 69.478291 
C 187.883135 60.126633 185.595997 49.466623 178.486899 39.846003 
C 171.377801 30.225383 160.027169 22.429636 146.934848 18.175683 
C 133.842527 13.92173 120.077447 13.556888 108.671207 17.16151 
C 97.264968 20.766131 89.148837 28.045915 86.110299 37.397573 
C 83.071762 46.749231 85.3589 57.409241 92.467998 67.029861 
C 99.577096 76.650481 110.927728 84.446228 124.020049 88.700181 
C 137.11237 92.954134 150.87745 93.318976 162.283689 89.714354 
C 173.689929 86.109733 181.80606 78.829949 184.844597 69.478291 
z
" style="fill:#0000ff;opacity:0.3;stroke:#0000ff;stroke-linejoin:miter;"/>
   </g>
  </g>
  <g id="axes_2">
   <g id="patch_13">
    <path d="M 221.3 218.638273 
L 414.1 218.638273 
L 414.1 10.7 
L 221.3 10.7 
z
" style="fill:#ffffff;"/>
   </g>
   <g id="patch_14">
    <path clip-path="url(#p06ee07b343)" d="M 325.115385 47.793307 
C 325.115385 46.819527 324.923571 45.855217 324.550922 44.955562 
C 324.178273 44.055907 323.632035 43.238404 322.943469 42.549838 
C 322.254903 41.861272 321.4374 41.315034 320.537745 40.942384 
C 319.63809 40.569735 318.673779 40.377922 317.7 40.377922 
C 316.726221 40.377922 315.76191 40.569735 314.862255 40.942384 
C 313.9626 41.315034 313.145097 41.861272 312.456531 42.549838 
C 311.767965 43.238404 311.221727 44.055907 310.849078 44.955562 
C 310.476429 45.855217 310.284615 46.819527 310.284615 47.793307 
C 310.284615 48.767086 310.476429 49.731397 310.849078 50.631051 
C 311.221727 51.530706 311.767965 52.348209 312.456531 53.036775 
C 313.145097 53.725341 313.9626 54.271579 314.862255 54.644229 
C 315.76191 55.016878 316.726221 55.208691 317.7 55.208691 
C 318.673779 55.208691 319.63809 55.016878 320.537745 54.644229 
C 321.4374 54.271579 322.254903 53.725341 322.943469 53.036775 
C 323.632035 52.348209 324.178273 51.530706 324.550922 50.631051 
C 324.923571 49.731397 325.115385 48.767086 325.115385 47.793307 
M 317.7 47.793307 
M 325.115385 47.793307 
z
"/>
   </g>
   <g id="patch_15">
    <path clip-path="url(#p06ee07b343)" d="M 377.550072 69.512465 
C 377.550072 68.538686 377.358259 67.574375 376.98561 66.67472 
C 376.61296 65.775066 376.066722 64.957563 375.378156 64.268996 
C 374.68959 63.58043 373.872087 63.034192 372.972432 62.661543 
C 372.072777 62.288894 371.108467 62.097081 370.134687 62.097081 
C 369.160908 62.097081 368.196597 62.288894 367.296943 62.661543 
C 366.397288 63.034192 365.579785 63.58043 364.891219 64.268996 
C 364.202653 64.957563 363.656415 65.775066 363.283765 66.67472 
C 362.911116 67.574375 362.719303 68.538686 362.719303 69.512465 
C 362.719303 70.486245 362.911116 71.450555 363.283765 72.35021 
C 363.656415 73.249865 364.202653 74.067368 364.891219 74.755934 
C 365.579785 75.4445 366.397288 75.990738 367.296943 76.363387 
C 368.196597 76.736037 369.160908 76.92785 370.134687 76.92785 
C 371.108467 76.92785 372.072777 76.736037 372.972432 76.363387 
C 373.872087 75.990738 374.68959 75.4445 375.378156 74.755934 
C 376.066722 74.067368 376.61296 73.249865 376.98561 72.35021 
C 377.358259 71.450555 377.550072 70.486245 377.550072 69.512465 
M 370.134687 69.512465 
M 377.550072 69.512465 
z
"/>
   </g>
   <g id="patch_16">
    <path clip-path="url(#p06ee07b343)" d="M 399.269231 121.947153 
C 399.269231 120.973373 399.077417 120.009063 398.704768 119.109408 
C 398.332119 118.209753 397.785881 117.39225 397.097315 116.703684 
C 396.408749 116.015118 395.591246 115.46888 394.691591 115.096231 
C 393.791936 114.723581 392.827626 114.531768 391.853846 114.531768 
C 390.880067 114.531768 389.915756 114.723581 389.016101 115.096231 
C 388.116446 115.46888 387.298943 116.015118 386.610377 116.703684 
C 385.921811 117.39225 385.375573 118.209753 385.002924 119.109408 
C 384.630275 120.009063 384.438462 120.973373 384.438462 121.947153 
C 384.438462 122.920932 384.630275 123.885243 385.002924 124.784898 
C 385.375573 125.684552 385.921811 126.502055 386.610377 127.190621 
C 387.298943 127.879187 388.116446 128.425426 389.016101 128.798075 
C 389.915756 129.170724 390.880067 129.362537 391.853846 129.362537 
C 392.827626 129.362537 393.791936 129.170724 394.691591 128.798075 
C 395.591246 128.425426 396.408749 127.879187 397.097315 127.190621 
C 397.785881 126.502055 398.332119 125.684552 398.704768 124.784898 
C 399.077417 123.885243 399.269231 122.920932 399.269231 121.947153 
M 391.853846 121.947153 
M 399.269231 121.947153 
z
"/>
   </g>
   <g id="patch_17">
    <path clip-path="url(#p06ee07b343)" d="M 377.550072 174.38184 
C 377.550072 173.408061 377.358259 172.44375 376.98561 171.544095 
C 376.61296 170.64444 376.066722 169.826937 375.378156 169.138371 
C 374.68959 168.449805 373.872087 167.903567 372.972432 167.530918 
C 372.072777 167.158269 371.108467 166.966456 370.134687 166.966456 
C 369.160908 166.966456 368.196597 167.158269 367.296943 167.530918 
C 366.397288 167.903567 365.579785 168.449805 364.891219 169.138371 
C 364.202653 169.826937 363.656415 170.64444 363.283765 171.544095 
C 362.911116 172.44375 362.719303 173.408061 362.719303 174.38184 
C 362.719303 175.35562 362.911116 176.31993 363.283765 177.219585 
C 363.656415 178.11924 364.202653 178.936743 364.891219 179.625309 
C 365.579785 180.313875 366.397288 180.860113 367.296943 181.232762 
C 368.196597 181.605411 369.160908 181.797225 370.134687 181.797225 
C 371.108467 181.797225 372.072777 181.605411 372.972432 181.232762 
C 373.872087 180.860113 374.68959 180.313875 375.378156 179.625309 
C 376.066722 178.936743 376.61296 178.11924 376.98561 177.219585 
C 377.358259 176.31993 377.550072 175.35562 377.550072 174.38184 
M 370.134687 174.38184 
M 377.550072 174.38184 
z
"/>
   </g>
   <g id="patch_18">
    <path clip-path="url(#p06ee07b343)" d="M 325.115385 196.100999 
C 325.115385 195.127219 324.923571 194.162909 324.550922 193.263254 
C 324.178273 192.363599 323.632035 191.546096 322.943469 190.85753 
C 322.254903 190.168964 321.4374 189.622726 320.537745 189.250077 
C 319.63809 188.877428 318.673779 188.685614 317.7 188.685614 
C 316.726221 188.685614 315.76191 188.877428 314.862255 189.250077 
C 313.9626 189.622726 313.145097 190.168964 312.456531 190.85753 
C 311.767965 191.546096 311.221727 192.363599 310.849078 193.263254 
C 310.476429 194.162909 310.284615 195.127219 310.284615 196.100999 
C 310.284615 197.074778 310.476429 198.039089 310.849078 198.938744 
C 311.221727 199.838399 311.767965 200.655902 312.456531 201.344468 
C 313.145097 202.033034 313.9626 202.579272 314.862255 202.951921 
C 315.76191 203.32457 316.726221 203.516383 317.7 203.516383 
C 318.673779 203.516383 319.63809 203.32457 320.537745 202.951921 
C 321.4374 202.579272 322.254903 202.033034 322.943469 201.344468 
C 323.632035 200.655902 324.178273 199.838399 324.550922 198.938744 
C 324.923571 198.039089 325.115385 197.074778 325.115385 196.100999 
M 317.7 196.100999 
M 325.115385 196.100999 
z
"/>
   </g>
   <g id="patch_19">
    <path clip-path="url(#p06ee07b343)" d="M 272.680697 174.38184 
C 272.680697 173.408061 272.488884 172.44375 272.116235 171.544095 
C 271.743585 170.64444 271.197347 169.826937 270.508781 169.138371 
C 269.820215 168.449805 269.002712 167.903567 268.103057 167.530918 
C 267.203403 167.158269 266.239092 166.966456 265.265313 166.966456 
C 264.291533 166.966456 263.327223 167.158269 262.427568 167.530918 
C 261.527913 167.903567 260.71041 168.449805 260.021844 169.138371 
C 259.333278 169.826937 258.78704 170.64444 258.41439 171.544095 
C 258.041741 172.44375 257.849928 173.408061 257.849928 174.38184 
C 257.849928 175.35562 258.041741 176.31993 258.41439 177.219585 
C 258.78704 178.11924 259.333278 178.936743 260.021844 179.625309 
C 260.71041 180.313875 261.527913 180.860113 262.427568 181.232762 
C 263.327223 181.605411 264.291533 181.797225 265.265313 181.797225 
C 266.239092 181.797225 267.203403 181.605411 268.103057 181.232762 
C 269.002712 180.860113 269.820215 180.313875 270.508781 179.625309 
C 271.197347 178.936743 271.743585 178.11924 272.116235 177.219585 
C 272.488884 176.31993 272.680697 175.35562 272.680697 174.38184 
M 265.265313 174.38184 
M 272.680697 174.38184 
z
"/>
   </g>
   <g id="patch_20">
    <path clip-path="url(#p06ee07b343)" d="M 250.961538 121.947153 
C 250.961538 120.973373 250.769725 120.009063 250.397076 119.109408 
C 250.024427 118.209753 249.478189 117.39225 248.789623 116.703684 
C 248.101057 116.015118 247.283554 115.46888 246.383899 115.096231 
C 245.484244 114.723581 244.519933 114.531768 243.546154 114.531768 
C 242.572374 114.531768 241.608064 114.723581 240.708409 115.096231 
C 239.808754 115.46888 238.991251 116.015118 238.302685 116.703684 
C 237.614119 117.39225 237.067881 118.209753 236.695232 119.109408 
C 236.322583 120.009063 236.130769 120.973373 236.130769 121.947153 
C 236.130769 122.920932 236.322583 123.885243 236.695232 124.784898 
C 237.067881 125.684552 237.614119 126.502055 238.302685 127.190621 
C 238.991251 127.879187 239.808754 128.425426 240.708409 128.798075 
C 241.608064 129.170724 242.572374 129.362537 243.546154 129.362537 
C 244.519933 129.362537 245.484244 129.170724 246.383899 128.798075 
C 247.283554 128.425426 248.101057 127.879187 248.789623 127.190621 
C 249.478189 126.502055 250.024427 125.684552 250.397076 124.784898 
C 250.769725 123.885243 250.961538 122.920932 250.961538 121.947153 
M 243.546154 121.947153 
M 250.961538 121.947153 
z
"/>
   </g>
   <g id="patch_21">
    <path clip-path="url(#p06ee07b343)" d="M 272.680697 69.512465 
C 272.680697 68.538686 272.488884 67.574375 272.116235 66.67472 
C 271.743585 65.775066 271.197347 64.957563 270.508781 64.268996 
C 269.820215 63.58043 269.002712 63.034192 268.103057 62.661543 
C 267.203403 62.288894 266.239092 62.097081 265.265313 62.097081 
C 264.291533 62.097081 263.327223 62.288894 262.427568 62.661543 
C 261.527913 63.034192 260.71041 63.58043 260.021844 64.268996 
C 259.333278 64.957563 258.78704 65.775066 258.41439 66.67472 
C 258.041741 67.574375 257.849928 68.538686 257.849928 69.512465 
C 257.849928 70.486245 258.041741 71.450555 258.41439 72.35021 
C 258.78704 73.249865 259.333278 74.067368 260.021844 74.755934 
C 260.71041 75.4445 261.527913 75.990738 262.427568 76.363387 
C 263.327223 76.736037 264.291533 76.92785 265.265313 76.92785 
C 266.239092 76.92785 267.203403 76.736037 268.103057 76.363387 
C 269.002712 75.990738 269.820215 75.4445 270.508781 74.755934 
C 271.197347 74.067368 271.743585 73.249865 272.116235 72.35021 
C 272.488884 71.450555 272.680697 70.486245 272.680697 69.512465 
M 265.265313 69.512465 
M 272.680697 69.512465 
z
"/>
   </g>
   <g id="matplotlib.axis_3"/>
   <g id="matplotlib.axis_4"/>
   <g id="text_9">
    <!-- 2 -->
    <g style="fill:#0000ff;" transform="translate(312.928125 33.393908)scale(0.15 -0.15)">
     <use xlink:href="#DejaVuSans-32"/>
    </g>
   </g>
   <g id="text_10">
    <!-- 1 -->
    <g style="fill:#0000ff;" transform="translate(378.471484 60.542856)scale(0.15 -0.15)">
     <use xlink:href="#DejaVuSans-31"/>
    </g>
   </g>
   <g id="text_11">
    <!-- 3 -->
    <g style="fill:#0000ff;" transform="translate(405.620433 126.086215)scale(0.15 -0.15)">
     <use xlink:href="#DejaVuSans-33"/>
    </g>
   </g>
   <g id="text_12">
    <!-- 4 -->
    <g style="fill:#0000ff;" transform="translate(378.471484 191.629575)scale(0.15 -0.15)">
     <use xlink:href="#DejaVuSans-34"/>
    </g>
   </g>
   <g id="text_13">
    <!-- 5 -->
    <g style="fill:#0000ff;" transform="translate(312.928125 218.778523)scale(0.15 -0.15)">
     <use xlink:href="#DejaVuSans-35"/>
    </g>
   </g>
   <g id="text_14">
    <!-- 6 -->
    <g style="fill:#0000ff;" transform="translate(247.384766 191.629575)scale(0.15 -0.15)">
     <use xlink:href="#DejaVuSans-36"/>
    </g>
   </g>
   <g id="text_15">
    <!-- 7 -->
    <g style="fill:#0000ff;" transform="translate(220.235817 126.086215)scale(0.15 -0.15)">
     <use xlink:href="#DejaVuSans-37"/>
    </g>
   </g>
   <g id="text_16">
    <!-- 8 -->
    <g style="fill:#0000ff;" transform="translate(247.384766 60.542856)scale(0.15 -0.15)">
     <use xlink:href="#DejaVuSans-38"/>
    </g>
   </g>
   <g id="patch_22">
    <path clip-path="url(#p06ee07b343)" d="M 317.7 196.100999 
C 337.36583 196.100999 356.228846 188.287682 370.134687 174.38184 
C 384.040529 160.475999 391.853846 141.612983 391.853846 121.947153 
C 391.853846 102.281323 384.040529 83.418307 370.134687 69.512465 
C 356.228846 55.606624 337.36583 47.793307 317.7 47.793307 
C 298.03417 47.793307 279.171154 55.606624 265.265313 69.512465 
C 251.359471 83.418307 243.546154 102.281323 243.546154 121.947153 
C 243.546154 141.612983 251.359471 160.475999 265.265313 174.38184 
C 279.171154 188.287682 298.03417 196.100999 317.7 196.100999 
z
" style="fill:none;stroke:#0000ff;stroke-linejoin:miter;"/>
   </g>
   <g id="patch_23">
    <path clip-path="url(#p06ee07b343)" d="M 395.444597 69.478291 
C 398.483135 60.126633 396.195997 49.466623 389.086899 39.846003 
C 381.977801 30.225383 370.627169 22.429636 357.534848 18.175683 
C 344.442527 13.92173 330.677447 13.556888 319.271207 17.16151 
C 307.864968 20.766131 299.748837 28.045915 296.710299 37.397573 
C 293.671762 46.749231 295.9589 57.409241 303.067998 67.029861 
C 310.177096 76.650481 321.527728 84.446228 334.620049 88.700181 
C 347.71237 92.954134 361.47745 93.318976 372.883689 89.714354 
C 384.289929 86.109733 392.40606 78.829949 395.444597 69.478291 
z
" style="fill:#0000ff;opacity:0.3;stroke:#0000ff;stroke-linejoin:miter;"/>
   </g>
  </g>
 </g>
 <defs>
  <clipPath id="pde6e611a2f">
   <rect height="207.938273" width="192.8" x="10.7" y="10.7"/>
  </clipPath>
  <clipPath id="p06ee07b343">
   <rect height="207.938273" width="192.8" x="221.3" y="10.7"/>
  </clipPath>
 </defs>
</svg>
