<?xml version="1.0" encoding="utf-8" standalone="no"?>
<!DOCTYPE svg PUBLIC "-//W3C//DTD SVG 1.1//EN"
  "http://www.w3.org/Graphics/SVG/1.1/DTD/svg11.dtd">
<!-- Created with matplotlib (http://matplotlib.org/) -->
<svg height="150.118065pt" version="1.1" viewBox="0 0 424.8 150.118065" width="424.8pt" xmlns="http://www.w3.org/2000/svg" xmlns:xlink="http://www.w3.org/1999/xlink">
 <defs>
  <style type="text/css">
*{stroke-linecap:butt;stroke-linejoin:round;}
  </style>
 </defs>
 <g id="figure_1">
  <g id="patch_1">
   <path d="M 0 150.118065 
L 424.8 150.118065 
L 424.8 0 
L 0 0 
z
" style="fill:#ffffff;"/>
  </g>
  <g id="axes_1">
   <g id="patch_2">
    <path d="M 10.7 139.418065 
L 133.3 139.418065 
L 133.3 12.008408 
L 10.7 12.008408 
z
" style="fill:#ffffff;"/>
   </g>
   <g id="patch_3">
    <path clip-path="url(#p53d3734d9e)" d="M 77.444857 28.070737 
C 77.444857 27.355725 77.304015 26.647665 77.030392 25.98708 
C 76.756769 25.326495 76.355685 24.726231 75.850095 24.220641 
C 75.344506 23.715051 74.744242 23.313968 74.083657 23.040345 
C 73.423072 22.766721 72.715012 22.625879 72 22.625879 
C 71.284988 22.625879 70.576928 22.766721 69.916343 23.040345 
C 69.255758 23.313968 68.655494 23.715051 68.149905 24.220641 
C 67.644315 24.726231 67.243231 25.326495 66.969608 25.98708 
C 66.695985 26.647665 66.555143 27.355725 66.555143 28.070737 
C 66.555143 28.785749 66.695985 29.493808 66.969608 30.154393 
C 67.243231 30.814978 67.644315 31.415242 68.149905 31.920832 
C 68.655494 32.426422 69.255758 32.827505 69.916343 33.101129 
C 70.576928 33.374752 71.284988 33.515594 72 33.515594 
C 72.715012 33.515594 73.423072 33.374752 74.083657 33.101129 
C 74.744242 32.827505 75.344506 32.426422 75.850095 31.920832 
C 76.355685 31.415242 76.756769 30.814978 77.030392 30.154393 
C 77.304015 29.493808 77.444857 28.785749 77.444857 28.070737 
M 72 28.070737 
M 77.444857 28.070737 
z
"/>
   </g>
   <g id="patch_4">
    <path clip-path="url(#p53d3734d9e)" d="M 124.598703 109.743594 
C 124.598703 109.028582 124.457862 108.320522 124.184238 107.659937 
C 123.910615 106.999352 123.509531 106.399088 123.003942 105.893499 
C 122.498352 105.387909 121.898088 104.986825 121.237503 104.713202 
C 120.576918 104.439579 119.868858 104.298737 119.153846 104.298737 
C 118.438834 104.298737 117.730775 104.439579 117.07019 104.713202 
C 116.409604 104.986825 115.809341 105.387909 115.303751 105.893499 
C 114.798161 106.399088 114.397077 106.999352 114.123454 107.659937 
C 113.849831 108.320522 113.708989 109.028582 113.708989 109.743594 
C 113.708989 110.458606 113.849831 111.166666 114.123454 111.827251 
C 114.397077 112.487836 114.798161 113.088099 115.303751 113.593689 
C 115.809341 114.099279 116.409604 114.500363 117.07019 114.773986 
C 117.730775 115.047609 118.438834 115.188451 119.153846 115.188451 
C 119.868858 115.188451 120.576918 115.047609 121.237503 114.773986 
C 121.898088 114.500363 122.498352 114.099279 123.003942 113.593689 
C 123.509531 113.088099 123.910615 112.487836 124.184238 111.827251 
C 124.457862 111.166666 124.598703 110.458606 124.598703 109.743594 
M 119.153846 109.743594 
M 124.598703 109.743594 
z
"/>
   </g>
   <g id="patch_5">
    <path clip-path="url(#p53d3734d9e)" d="M 30.291011 109.743594 
C 30.291011 109.028582 30.150169 108.320522 29.876546 107.659937 
C 29.602923 106.999352 29.201839 106.399088 28.696249 105.893499 
C 28.190659 105.387909 27.590396 104.986825 26.92981 104.713202 
C 26.269225 104.439579 25.561166 104.298737 24.846154 104.298737 
C 24.131142 104.298737 23.423082 104.439579 22.762497 104.713202 
C 22.101912 104.986825 21.501648 105.387909 20.996058 105.893499 
C 20.490469 106.399088 20.089385 106.999352 19.815762 107.659937 
C 19.542138 108.320522 19.401297 109.028582 19.401297 109.743594 
C 19.401297 110.458606 19.542138 111.166666 19.815762 111.827251 
C 20.089385 112.487836 20.490469 113.088099 20.996058 113.593689 
C 21.501648 114.099279 22.101912 114.500363 22.762497 114.773986 
C 23.423082 115.047609 24.131142 115.188451 24.846154 115.188451 
C 25.561166 115.188451 26.269225 115.047609 26.92981 114.773986 
C 27.590396 114.500363 28.190659 114.099279 28.696249 113.593689 
C 29.201839 113.088099 29.602923 112.487836 29.876546 111.827251 
C 30.150169 111.166666 30.291011 110.458606 30.291011 109.743594 
M 24.846154 109.743594 
M 30.291011 109.743594 
z
"/>
   </g>
   <g id="matplotlib.axis_1"/>
   <g id="matplotlib.axis_2"/>
   <g id="text_1">
    <!-- 1 -->
    <defs>
     <path d="M 12.40625 8.296875 
L 28.515625 8.296875 
L 28.515625 63.921875 
L 10.984375 60.40625 
L 10.984375 69.390625 
L 28.421875 72.90625 
L 38.28125 72.90625 
L 38.28125 8.296875 
L 54.390625 8.296875 
L 54.390625 0 
L 12.40625 0 
z
" id="DejaVuSans-31"/>
    </defs>
    <g style="fill:#0000ff;" transform="translate(67.228125 18.597656)scale(0.15 -0.15)">
     <use xlink:href="#DejaVuSans-31"/>
    </g>
   </g>
   <g id="text_2">
    <!-- 2 -->
    <defs>
     <path d="M 19.1875 8.296875 
L 53.609375 8.296875 
L 53.609375 0 
L 7.328125 0 
L 7.328125 8.296875 
Q 12.9375 14.109375 22.625 23.890625 
Q 32.328125 33.6875 34.8125 36.53125 
Q 39.546875 41.84375 41.421875 45.53125 
Q 43.3125 49.21875 43.3125 52.78125 
Q 43.3125 58.59375 39.234375 62.25 
Q 35.15625 65.921875 28.609375 65.921875 
Q 23.96875 65.921875 18.8125 64.3125 
Q 13.671875 62.703125 7.8125 59.421875 
L 7.8125 69.390625 
Q 13.765625 71.78125 18.9375 73 
Q 24.125 74.21875 28.421875 74.21875 
Q 39.75 74.21875 46.484375 68.546875 
Q 53.21875 62.890625 53.21875 53.421875 
Q 53.21875 48.921875 51.53125 44.890625 
Q 49.859375 40.875 45.40625 35.40625 
Q 44.1875 33.984375 37.640625 27.21875 
Q 31.109375 20.453125 19.1875 8.296875 
z
" id="DejaVuSans-32"/>
    </defs>
    <g style="fill:#0000ff;" transform="translate(126.170433 120.688728)scale(0.15 -0.15)">
     <use xlink:href="#DejaVuSans-32"/>
    </g>
   </g>
   <g id="text_3">
    <!-- 3 -->
    <defs>
     <path d="M 40.578125 39.3125 
Q 47.65625 37.796875 51.625 33 
Q 55.609375 28.21875 55.609375 21.1875 
Q 55.609375 10.40625 48.1875 4.484375 
Q 40.765625 -1.421875 27.09375 -1.421875 
Q 22.515625 -1.421875 17.65625 -0.515625 
Q 12.796875 0.390625 7.625 2.203125 
L 7.625 11.71875 
Q 11.71875 9.328125 16.59375 8.109375 
Q 21.484375 6.890625 26.8125 6.890625 
Q 36.078125 6.890625 40.9375 10.546875 
Q 45.796875 14.203125 45.796875 21.1875 
Q 45.796875 27.640625 41.28125 31.265625 
Q 36.765625 34.90625 28.71875 34.90625 
L 20.21875 34.90625 
L 20.21875 43.015625 
L 29.109375 43.015625 
Q 36.375 43.015625 40.234375 45.921875 
Q 44.09375 48.828125 44.09375 54.296875 
Q 44.09375 59.90625 40.109375 62.90625 
Q 36.140625 65.921875 28.71875 65.921875 
Q 24.65625 65.921875 20.015625 65.03125 
Q 15.375 64.15625 9.8125 62.3125 
L 9.8125 71.09375 
Q 15.4375 72.65625 20.34375 73.4375 
Q 25.25 74.21875 29.59375 74.21875 
Q 40.828125 74.21875 47.359375 69.109375 
Q 53.90625 64.015625 53.90625 55.328125 
Q 53.90625 49.265625 50.4375 45.09375 
Q 46.96875 40.921875 40.578125 39.3125 
z
" id="DejaVuSans-33"/>
    </defs>
    <g style="fill:#0000ff;" transform="translate(8.285817 120.688728)scale(0.15 -0.15)">
     <use xlink:href="#DejaVuSans-33"/>
    </g>
   </g>
   <g id="patch_6">
    <path clip-path="url(#p53d3734d9e)" d="M 72 136.96788 
C 86.43993 136.96788 100.290382 131.230835 110.500954 121.020262 
C 120.711527 110.80969 126.448572 96.959238 126.448572 82.519308 
C 126.448572 68.079378 120.711527 54.228926 110.500954 44.018354 
C 100.290382 33.807782 86.43993 28.070737 72 28.070737 
C 57.56007 28.070737 43.709618 33.807782 33.499046 44.018354 
C 23.288473 54.228926 17.551428 68.079378 17.551428 82.519308 
C 17.551428 96.959238 23.288473 110.80969 33.499046 121.020262 
C 43.709618 131.230835 57.56007 136.96788 72 136.96788 
z
" style="fill:none;stroke:#0000ff;stroke-linejoin:miter;"/>
   </g>
  </g>
  <g id="axes_2">
   <g id="patch_7">
    <path d="M 151.1 139.418065 
L 273.7 139.418065 
L 273.7 12.008408 
L 151.1 12.008408 
z
" style="fill:#ffffff;"/>
   </g>
   <g id="patch_8">
    <path clip-path="url(#p44a70541e7)" d="M 217.844857 28.070737 
C 217.844857 27.355725 217.704015 26.647665 217.430392 25.98708 
C 217.156769 25.326495 216.755685 24.726231 216.250095 24.220641 
C 215.744506 23.715051 215.144242 23.313968 214.483657 23.040345 
C 213.823072 22.766721 213.115012 22.625879 212.4 22.625879 
C 211.684988 22.625879 210.976928 22.766721 210.316343 23.040345 
C 209.655758 23.313968 209.055494 23.715051 208.549905 24.220641 
C 208.044315 24.726231 207.643231 25.326495 207.369608 25.98708 
C 207.095985 26.647665 206.955143 27.355725 206.955143 28.070737 
C 206.955143 28.785749 207.095985 29.493808 207.369608 30.154393 
C 207.643231 30.814978 208.044315 31.415242 208.549905 31.920832 
C 209.055494 32.426422 209.655758 32.827505 210.316343 33.101129 
C 210.976928 33.374752 211.684988 33.515594 212.4 33.515594 
C 213.115012 33.515594 213.823072 33.374752 214.483657 33.101129 
C 215.144242 32.827505 215.744506 32.426422 216.250095 31.920832 
C 216.755685 31.415242 217.156769 30.814978 217.430392 30.154393 
C 217.704015 29.493808 217.844857 28.785749 217.844857 28.070737 
M 212.4 28.070737 
M 217.844857 28.070737 
z
"/>
   </g>
   <g id="patch_9">
    <path clip-path="url(#p44a70541e7)" d="M 264.998703 109.743594 
C 264.998703 109.028582 264.857862 108.320522 264.584238 107.659937 
C 264.310615 106.999352 263.909531 106.399088 263.403942 105.893499 
C 262.898352 105.387909 262.298088 104.986825 261.637503 104.713202 
C 260.976918 104.439579 260.268858 104.298737 259.553846 104.298737 
C 258.838834 104.298737 258.130775 104.439579 257.47019 104.713202 
C 256.809604 104.986825 256.209341 105.387909 255.703751 105.893499 
C 255.198161 106.399088 254.797077 106.999352 254.523454 107.659937 
C 254.249831 108.320522 254.108989 109.028582 254.108989 109.743594 
C 254.108989 110.458606 254.249831 111.166666 254.523454 111.827251 
C 254.797077 112.487836 255.198161 113.088099 255.703751 113.593689 
C 256.209341 114.099279 256.809604 114.500363 257.47019 114.773986 
C 258.130775 115.047609 258.838834 115.188451 259.553846 115.188451 
C 260.268858 115.188451 260.976918 115.047609 261.637503 114.773986 
C 262.298088 114.500363 262.898352 114.099279 263.403942 113.593689 
C 263.909531 113.088099 264.310615 112.487836 264.584238 111.827251 
C 264.857862 111.166666 264.998703 110.458606 264.998703 109.743594 
M 259.553846 109.743594 
M 264.998703 109.743594 
z
"/>
   </g>
   <g id="patch_10">
    <path clip-path="url(#p44a70541e7)" d="M 170.691011 109.743594 
C 170.691011 109.028582 170.550169 108.320522 170.276546 107.659937 
C 170.002923 106.999352 169.601839 106.399088 169.096249 105.893499 
C 168.590659 105.387909 167.990396 104.986825 167.32981 104.713202 
C 166.669225 104.439579 165.961166 104.298737 165.246154 104.298737 
C 164.531142 104.298737 163.823082 104.439579 163.162497 104.713202 
C 162.501912 104.986825 161.901648 105.387909 161.396058 105.893499 
C 160.890469 106.399088 160.489385 106.999352 160.215762 107.659937 
C 159.942138 108.320522 159.801297 109.028582 159.801297 109.743594 
C 159.801297 110.458606 159.942138 111.166666 160.215762 111.827251 
C 160.489385 112.487836 160.890469 113.088099 161.396058 113.593689 
C 161.901648 114.099279 162.501912 114.500363 163.162497 114.773986 
C 163.823082 115.047609 164.531142 115.188451 165.246154 115.188451 
C 165.961166 115.188451 166.669225 115.047609 167.32981 114.773986 
C 167.990396 114.500363 168.590659 114.099279 169.096249 113.593689 
C 169.601839 113.088099 170.002923 112.487836 170.276546 111.827251 
C 170.550169 111.166666 170.691011 110.458606 170.691011 109.743594 
M 165.246154 109.743594 
M 170.691011 109.743594 
z
"/>
   </g>
   <g id="matplotlib.axis_3"/>
   <g id="matplotlib.axis_4"/>
   <g id="text_4">
    <!-- 3 -->
    <g style="fill:#0000ff;" transform="translate(207.628125 18.597656)scale(0.15 -0.15)">
     <use xlink:href="#DejaVuSans-33"/>
    </g>
   </g>
   <g id="text_5">
    <!-- 1 -->
    <g style="fill:#0000ff;" transform="translate(266.570433 120.688728)scale(0.15 -0.15)">
     <use xlink:href="#DejaVuSans-31"/>
    </g>
   </g>
   <g id="text_6">
    <!-- 2 -->
    <g style="fill:#0000ff;" transform="translate(148.685817 120.688728)scale(0.15 -0.15)">
     <use xlink:href="#DejaVuSans-32"/>
    </g>
   </g>
   <g id="patch_11">
    <path clip-path="url(#p44a70541e7)" d="M 212.4 136.96788 
C 226.83993 136.96788 240.690382 131.230835 250.900954 121.020262 
C 261.111527 110.80969 266.848572 96.959238 266.848572 82.519308 
C 266.848572 68.079378 261.111527 54.228926 250.900954 44.018354 
C 240.690382 33.807782 226.83993 28.070737 212.4 28.070737 
C 197.96007 28.070737 184.109618 33.807782 173.899046 44.018354 
C 163.688473 54.228926 157.951428 68.079378 157.951428 82.519308 
C 157.951428 96.959238 163.688473 110.80969 173.899046 121.020262 
C 184.109618 131.230835 197.96007 136.96788 212.4 136.96788 
z
" style="fill:none;stroke:#0000ff;stroke-linejoin:miter;"/>
   </g>
  </g>
  <g id="axes_3">
   <g id="patch_12">
    <path d="M 291.5 139.418065 
L 414.1 139.418065 
L 414.1 12.008408 
L 291.5 12.008408 
z
" style="fill:#ffffff;"/>
   </g>
   <g id="patch_13">
    <path clip-path="url(#p4e82d95624)" d="M 358.244857 28.070737 
C 358.244857 27.355725 358.104015 26.647665 357.830392 25.98708 
C 357.556769 25.326495 357.155685 24.726231 356.650095 24.220641 
C 356.144506 23.715051 355.544242 23.313968 354.883657 23.040345 
C 354.223072 22.766721 353.515012 22.625879 352.8 22.625879 
C 352.084988 22.625879 351.376928 22.766721 350.716343 23.040345 
C 350.055758 23.313968 349.455494 23.715051 348.949905 24.220641 
C 348.444315 24.726231 348.043231 25.326495 347.769608 25.98708 
C 347.495985 26.647665 347.355143 27.355725 347.355143 28.070737 
C 347.355143 28.785749 347.495985 29.493808 347.769608 30.154393 
C 348.043231 30.814978 348.444315 31.415242 348.949905 31.920832 
C 349.455494 32.426422 350.055758 32.827505 350.716343 33.101129 
C 351.376928 33.374752 352.084988 33.515594 352.8 33.515594 
C 353.515012 33.515594 354.223072 33.374752 354.883657 33.101129 
C 355.544242 32.827505 356.144506 32.426422 356.650095 31.920832 
C 357.155685 31.415242 357.556769 30.814978 357.830392 30.154393 
C 358.104015 29.493808 358.244857 28.785749 358.244857 28.070737 
M 352.8 28.070737 
M 358.244857 28.070737 
z
"/>
   </g>
   <g id="patch_14">
    <path clip-path="url(#p4e82d95624)" d="M 405.398703 109.743594 
C 405.398703 109.028582 405.257862 108.320522 404.984238 107.659937 
C 404.710615 106.999352 404.309531 106.399088 403.803942 105.893499 
C 403.298352 105.387909 402.698088 104.986825 402.037503 104.713202 
C 401.376918 104.439579 400.668858 104.298737 399.953846 104.298737 
C 399.238834 104.298737 398.530775 104.439579 397.87019 104.713202 
C 397.209604 104.986825 396.609341 105.387909 396.103751 105.893499 
C 395.598161 106.399088 395.197077 106.999352 394.923454 107.659937 
C 394.649831 108.320522 394.508989 109.028582 394.508989 109.743594 
C 394.508989 110.458606 394.649831 111.166666 394.923454 111.827251 
C 395.197077 112.487836 395.598161 113.088099 396.103751 113.593689 
C 396.609341 114.099279 397.209604 114.500363 397.87019 114.773986 
C 398.530775 115.047609 399.238834 115.188451 399.953846 115.188451 
C 400.668858 115.188451 401.376918 115.047609 402.037503 114.773986 
C 402.698088 114.500363 403.298352 114.099279 403.803942 113.593689 
C 404.309531 113.088099 404.710615 112.487836 404.984238 111.827251 
C 405.257862 111.166666 405.398703 110.458606 405.398703 109.743594 
M 399.953846 109.743594 
M 405.398703 109.743594 
z
"/>
   </g>
   <g id="patch_15">
    <path clip-path="url(#p4e82d95624)" d="M 311.091011 109.743594 
C 311.091011 109.028582 310.950169 108.320522 310.676546 107.659937 
C 310.402923 106.999352 310.001839 106.399088 309.496249 105.893499 
C 308.990659 105.387909 308.390396 104.986825 307.72981 104.713202 
C 307.069225 104.439579 306.361166 104.298737 305.646154 104.298737 
C 304.931142 104.298737 304.223082 104.439579 303.562497 104.713202 
C 302.901912 104.986825 302.301648 105.387909 301.796058 105.893499 
C 301.290469 106.399088 300.889385 106.999352 300.615762 107.659937 
C 300.342138 108.320522 300.201297 109.028582 300.201297 109.743594 
C 300.201297 110.458606 300.342138 111.166666 300.615762 111.827251 
C 300.889385 112.487836 301.290469 113.088099 301.796058 113.593689 
C 302.301648 114.099279 302.901912 114.500363 303.562497 114.773986 
C 304.223082 115.047609 304.931142 115.188451 305.646154 115.188451 
C 306.361166 115.188451 307.069225 115.047609 307.72981 114.773986 
C 308.390396 114.500363 308.990659 114.099279 309.496249 113.593689 
C 310.001839 113.088099 310.402923 112.487836 310.676546 111.827251 
C 310.950169 111.166666 311.091011 110.458606 311.091011 109.743594 
M 305.646154 109.743594 
M 311.091011 109.743594 
z
"/>
   </g>
   <g id="matplotlib.axis_5"/>
   <g id="matplotlib.axis_6"/>
   <g id="text_7">
    <!-- 2 -->
    <g style="fill:#0000ff;" transform="translate(348.028125 18.597656)scale(0.15 -0.15)">
     <use xlink:href="#DejaVuSans-32"/>
    </g>
   </g>
   <g id="text_8">
    <!-- 3 -->
    <g style="fill:#0000ff;" transform="translate(406.970433 120.688728)scale(0.15 -0.15)">
     <use xlink:href="#DejaVuSans-33"/>
    </g>
   </g>
   <g id="text_9">
    <!-- 1 -->
    <g style="fill:#0000ff;" transform="translate(289.085817 120.688728)scale(0.15 -0.15)">
     <use xlink:href="#DejaVuSans-31"/>
    </g>
   </g>
   <g id="patch_16">
    <path clip-path="url(#p4e82d95624)" d="M 352.8 136.96788 
C 367.23993 136.96788 381.090382 131.230835 391.300954 121.020262 
C 401.511527 110.80969 407.248572 96.959238 407.248572 82.519308 
C 407.248572 68.079378 401.511527 54.228926 391.300954 44.018354 
C 381.090382 33.807782 367.23993 28.070737 352.8 28.070737 
C 338.36007 28.070737 324.509618 33.807782 314.299046 44.018354 
C 304.088473 54.228926 298.351428 68.079378 298.351428 82.519308 
C 298.351428 96.959238 304.088473 110.80969 314.299046 121.020262 
C 324.509618 131.230835 338.36007 136.96788 352.8 136.96788 
z
" style="fill:none;stroke:#0000ff;stroke-linejoin:miter;"/>
   </g>
  </g>
 </g>
 <defs>
  <clipPath id="p53d3734d9e">
   <rect height="127.409657" width="122.6" x="10.7" y="12.008408"/>
  </clipPath>
  <clipPath id="p44a70541e7">
   <rect height="127.409657" width="122.6" x="151.1" y="12.008408"/>
  </clipPath>
  <clipPath id="p4e82d95624">
   <rect height="127.409657" width="122.6" x="291.5" y="12.008408"/>
  </clipPath>
 </defs>
</svg>
