<?xml version="1.0" encoding="utf-8" standalone="no"?>
<!DOCTYPE svg PUBLIC "-//W3C//DTD SVG 1.1//EN"
  "http://www.w3.org/Graphics/SVG/1.1/DTD/svg11.dtd">
<!-- Created with matplotlib (http://matplotlib.org/) -->
<svg height="280.8pt" version="1.1" viewBox="0 0 246.04699 280.8" width="246.04699pt" xmlns="http://www.w3.org/2000/svg" xmlns:xlink="http://www.w3.org/1999/xlink">
 <defs>
  <style type="text/css">
*{stroke-linecap:butt;stroke-linejoin:round;}
  </style>
 </defs>
 <g id="figure_1">
  <g id="patch_1">
   <path d="M 0 280.8 
L 246.04699 280.8 
L 246.04699 0 
L 0 0 
z
" style="fill:#ffffff;"/>
  </g>
  <g id="axes_1">
   <g id="patch_2">
    <path d="M 10.7 270.1 
L 235.34699 270.1 
L 235.34699 10.7 
L 10.7 10.7 
z
" style="fill:#ffffff;"/>
   </g>
   <g id="patch_3">
    <path clip-path="url(#pcd3010cb03)" d="M 123.023495 90.515385 
C 123.023495 89.56986 122.837247 88.633529 122.47541 87.759978 
C 122.113574 86.886427 121.583185 86.092644 120.914598 85.424057 
C 120.246011 84.75547 119.452228 84.225082 118.578677 83.863245 
C 117.705126 83.501408 116.768796 83.315161 115.823271 83.315161 
C 114.877746 83.315161 113.941415 83.501408 113.067864 83.863245 
C 112.194313 84.225082 111.400531 84.75547 110.731944 85.424057 
C 110.063357 86.092644 109.532968 86.886427 109.171131 87.759978 
C 108.809295 88.633529 108.623047 89.56986 108.623047 90.515385 
C 108.623047 91.460909 108.809295 92.39724 109.171131 93.270791 
C 109.532968 94.144342 110.063357 94.938125 110.731944 95.606712 
C 111.400531 96.275299 112.194313 96.805688 113.067864 97.167524 
C 113.941415 97.529361 114.877746 97.715609 115.823271 97.715609 
C 116.768796 97.715609 117.705126 97.529361 118.578677 97.167524 
C 119.452228 96.805688 120.246011 96.275299 120.914598 95.606712 
C 121.583185 94.938125 122.113574 94.144342 122.47541 93.270791 
C 122.837247 92.39724 123.023495 91.460909 123.023495 90.515385 
M 115.823271 90.515385 
M 123.023495 90.515385 
z
"/>
   </g>
   <g id="patch_4">
    <path clip-path="url(#pcd3010cb03)" d="M 36.620807 130.423077 
C 36.620807 129.477552 36.434559 128.541221 36.072722 127.66767 
C 35.710885 126.79412 35.180497 126.000337 34.51191 125.33175 
C 33.843323 124.663163 33.04954 124.132774 32.175989 123.770937 
C 31.302438 123.409101 30.366107 123.222853 29.420582 123.222853 
C 28.475058 123.222853 27.538727 123.409101 26.665176 123.770937 
C 25.791625 124.132774 24.997842 124.663163 24.329255 125.33175 
C 23.660668 126.000337 23.13028 126.79412 22.768443 127.66767 
C 22.406606 128.541221 22.220358 129.477552 22.220358 130.423077 
C 22.220358 131.368602 22.406606 132.304932 22.768443 133.178483 
C 23.13028 134.052034 23.660668 134.845817 24.329255 135.514404 
C 24.997842 136.182991 25.791625 136.71338 26.665176 137.075217 
C 27.538727 137.437053 28.475058 137.623301 29.420582 137.623301 
C 30.366107 137.623301 31.302438 137.437053 32.175989 137.075217 
C 33.04954 136.71338 33.843323 136.182991 34.51191 135.514404 
C 35.180497 134.845817 35.710885 134.052034 36.072722 133.178483 
C 36.434559 132.304932 36.620807 131.368602 36.620807 130.423077 
M 29.420582 130.423077 
M 36.620807 130.423077 
z
"/>
   </g>
   <g id="patch_5">
    <path clip-path="url(#pcd3010cb03)" d="M 36.620807 150.376923 
C 36.620807 149.431398 36.434559 148.495068 36.072722 147.621517 
C 35.710885 146.747966 35.180497 145.954183 34.51191 145.285596 
C 33.843323 144.617009 33.04954 144.08662 32.175989 143.724783 
C 31.302438 143.362947 30.366107 143.176699 29.420582 143.176699 
C 28.475058 143.176699 27.538727 143.362947 26.665176 143.724783 
C 25.791625 144.08662 24.997842 144.617009 24.329255 145.285596 
C 23.660668 145.954183 23.13028 146.747966 22.768443 147.621517 
C 22.406606 148.495068 22.220358 149.431398 22.220358 150.376923 
C 22.220358 151.322448 22.406606 152.258779 22.768443 153.13233 
C 23.13028 154.00588 23.660668 154.799663 24.329255 155.46825 
C 24.997842 156.136837 25.791625 156.667226 26.665176 157.029063 
C 27.538727 157.390899 28.475058 157.577147 29.420582 157.577147 
C 30.366107 157.577147 31.302438 157.390899 32.175989 157.029063 
C 33.04954 156.667226 33.843323 156.136837 34.51191 155.46825 
C 35.180497 154.799663 35.710885 154.00588 36.072722 153.13233 
C 36.434559 152.258779 36.620807 151.322448 36.620807 150.376923 
M 29.420582 150.376923 
M 36.620807 150.376923 
z
"/>
   </g>
   <g id="patch_6">
    <path clip-path="url(#pcd3010cb03)" d="M 131.663764 185.296154 
C 131.663764 184.350629 131.477516 183.414298 131.115679 182.540747 
C 130.753843 181.667196 130.223454 180.873414 129.554867 180.204827 
C 128.88628 179.53624 128.092497 179.005851 127.218946 178.644014 
C 126.345395 178.282178 125.409064 178.09593 124.46354 178.09593 
C 123.518015 178.09593 122.581684 178.282178 121.708133 178.644014 
C 120.834582 179.005851 120.040799 179.53624 119.372212 180.204827 
C 118.703625 180.873414 118.173237 181.667196 117.8114 182.540747 
C 117.449563 183.414298 117.263316 184.350629 117.263316 185.296154 
C 117.263316 186.241679 117.449563 187.178009 117.8114 188.05156 
C 118.173237 188.925111 118.703625 189.718894 119.372212 190.387481 
C 120.040799 191.056068 120.834582 191.586457 121.708133 191.948293 
C 122.581684 192.31013 123.518015 192.496378 124.46354 192.496378 
C 125.409064 192.496378 126.345395 192.31013 127.218946 191.948293 
C 128.092497 191.586457 128.88628 191.056068 129.554867 190.387481 
C 130.223454 189.718894 130.753843 188.925111 131.115679 188.05156 
C 131.477516 187.178009 131.663764 186.241679 131.663764 185.296154 
M 124.46354 185.296154 
M 131.663764 185.296154 
z
"/>
   </g>
   <g id="patch_7">
    <path clip-path="url(#pcd3010cb03)" d="M 114.383226 195.273077 
C 114.383226 194.327552 114.196978 193.391221 113.835142 192.51767 
C 113.473305 191.64412 112.942916 190.850337 112.274329 190.18175 
C 111.605742 189.513163 110.811959 188.982774 109.938408 188.620937 
C 109.064857 188.259101 108.128527 188.072853 107.183002 188.072853 
C 106.237477 188.072853 105.301147 188.259101 104.427596 188.620937 
C 103.554045 188.982774 102.760262 189.513163 102.091675 190.18175 
C 101.423088 190.850337 100.892699 191.64412 100.530862 192.51767 
C 100.169026 193.391221 99.982778 194.327552 99.982778 195.273077 
C 99.982778 196.218602 100.169026 197.154932 100.530862 198.028483 
C 100.892699 198.902034 101.423088 199.695817 102.091675 200.364404 
C 102.760262 201.032991 103.554045 201.56338 104.427596 201.925217 
C 105.301147 202.287053 106.237477 202.473301 107.183002 202.473301 
C 108.128527 202.473301 109.064857 202.287053 109.938408 201.925217 
C 110.811959 201.56338 111.605742 201.032991 112.274329 200.364404 
C 112.942916 199.695817 113.473305 198.902034 113.835142 198.028483 
C 114.196978 197.154932 114.383226 196.218602 114.383226 195.273077 
M 107.183002 195.273077 
M 114.383226 195.273077 
z
"/>
   </g>
   <g id="patch_8">
    <path clip-path="url(#pcd3010cb03)" d="M 148.944301 175.319231 
C 148.944301 174.373706 148.758054 173.437375 148.396217 172.563824 
C 148.03438 171.690273 147.503992 170.89649 146.835405 170.227904 
C 146.166818 169.559317 145.373035 169.028928 144.499484 168.667091 
C 143.625933 168.305254 142.689602 168.119007 141.744077 168.119007 
C 140.798553 168.119007 139.862222 168.305254 138.988671 168.667091 
C 138.11512 169.028928 137.321337 169.559317 136.65275 170.227904 
C 135.984163 170.89649 135.453774 171.690273 135.091938 172.563824 
C 134.730101 173.437375 134.543853 174.373706 134.543853 175.319231 
C 134.543853 176.264756 134.730101 177.201086 135.091938 178.074637 
C 135.453774 178.948188 135.984163 179.741971 136.65275 180.410558 
C 137.321337 181.079145 138.11512 181.609534 138.988671 181.97137 
C 139.862222 182.333207 140.798553 182.519455 141.744077 182.519455 
C 142.689602 182.519455 143.625933 182.333207 144.499484 181.97137 
C 145.373035 181.609534 146.166818 181.079145 146.835405 180.410558 
C 147.503992 179.741971 148.03438 178.948188 148.396217 178.074637 
C 148.758054 177.201086 148.944301 176.264756 148.944301 175.319231 
M 141.744077 175.319231 
M 148.944301 175.319231 
z
"/>
   </g>
   <g id="patch_9">
    <path clip-path="url(#pcd3010cb03)" d="M 97.102688 205.25 
C 97.102688 204.304475 96.916441 203.368145 96.554604 202.494594 
C 96.192767 201.621043 95.662379 200.82726 94.993792 200.158673 
C 94.325205 199.490086 93.531422 198.959697 92.657871 198.59786 
C 91.78432 198.236024 90.847989 198.049776 89.902464 198.049776 
C 88.95694 198.049776 88.020609 198.236024 87.147058 198.59786 
C 86.273507 198.959697 85.479724 199.490086 84.811137 200.158673 
C 84.14255 200.82726 83.612161 201.621043 83.250325 202.494594 
C 82.888488 203.368145 82.70224 204.304475 82.70224 205.25 
C 82.70224 206.195525 82.888488 207.131855 83.250325 208.005406 
C 83.612161 208.878957 84.14255 209.67274 84.811137 210.341327 
C 85.479724 211.009914 86.273507 211.540303 87.147058 211.90214 
C 88.020609 212.263976 88.95694 212.450224 89.902464 212.450224 
C 90.847989 212.450224 91.78432 212.263976 92.657871 211.90214 
C 93.531422 211.540303 94.325205 211.009914 94.993792 210.341327 
C 95.662379 209.67274 96.192767 208.878957 96.554604 208.005406 
C 96.916441 207.131855 97.102688 206.195525 97.102688 205.25 
M 89.902464 205.25 
M 97.102688 205.25 
z
"/>
   </g>
   <g id="patch_10">
    <path clip-path="url(#pcd3010cb03)" d="M 231.026855 140.4 
L 15.020134 15.688462 
L 15.020134 265.111538 
z
" style="fill:#ffa500;opacity:0.5;stroke:#ffa500;stroke-linejoin:miter;stroke-width:4;"/>
   </g>
   <g id="matplotlib.axis_1"/>
   <g id="matplotlib.axis_2"/>
  </g>
 </g>
 <defs>
  <clipPath id="pcd3010cb03">
   <rect height="259.4" width="224.64699" x="10.7" y="10.7"/>
  </clipPath>
 </defs>
</svg>
