<?xml version="1.0" encoding="utf-8" standalone="no"?>
<!DOCTYPE svg PUBLIC "-//W3C//DTD SVG 1.1//EN"
  "http://www.w3.org/Graphics/SVG/1.1/DTD/svg11.dtd">
<!-- Created with matplotlib (http://matplotlib.org/) -->
<svg height="280.8pt" version="1.1" viewBox="0 0 294.023077 280.8" width="294.023077pt" xmlns="http://www.w3.org/2000/svg" xmlns:xlink="http://www.w3.org/1999/xlink">
 <defs>
  <style type="text/css">
*{stroke-linecap:butt;stroke-linejoin:round;}
  </style>
 </defs>
 <g id="figure_1">
  <g id="patch_1">
   <path d="M 0 280.8 
L 294.023077 280.8 
L 294.023077 0 
L 0 0 
z
" style="fill:#ffffff;"/>
  </g>
  <g id="axes_1">
   <g id="patch_2">
    <path d="M 17.211538 270.1 
L 276.611538 270.1 
L 276.611538 10.7 
L 17.211538 10.7 
z
" style="fill:#ffffff;"/>
   </g>
   <g id="matplotlib.axis_1"/>
   <g id="matplotlib.axis_2"/>
   <g id="text_1">
    <!-- $A$ -->
    <defs>
     <path d="M 4.5 0 
Q 3.515625 0 3.515625 1.3125 
Q 3.90625 3.515625 4.78125 3.515625 
Q 8.84375 3.515625 11.796875 5.125 
Q 14.75 6.734375 16.890625 10.109375 
Q 17.09375 10.296875 17.09375 10.296875 
L 52.78125 70.515625 
Q 53.5625 71.578125 54.6875 71.578125 
L 56 71.578125 
Q 56.296875 71.578125 56.59375 71.453125 
Q 56.890625 71.34375 57.109375 71.0625 
Q 57.328125 70.796875 57.328125 70.515625 
L 63.375 5.90625 
Q 63.375 5.46875 63.8125 4.59375 
Q 64.796875 3.515625 71.296875 3.515625 
Q 72.3125 3.515625 72.3125 2.203125 
Q 71.96875 0.875 71.75 0.4375 
Q 71.53125 0 70.609375 0 
L 45.609375 0 
Q 44.671875 0 44.671875 1.3125 
Q 45.21875 3.515625 46 3.515625 
Q 53.90625 3.515625 54.390625 6.203125 
L 52.875 22.703125 
L 28.21875 22.703125 
L 20.21875 9.28125 
Q 19.484375 8.203125 19.484375 6.78125 
Q 19.484375 5.03125 21.171875 4.265625 
Q 22.859375 3.515625 24.90625 3.515625 
Q 25.875 3.515625 25.875 2.203125 
Q 25.53125 0.78125 25.328125 0.390625 
Q 25.140625 0 24.21875 0 
z
M 30.171875 26.21875 
L 52.484375 26.21875 
L 49.515625 58.59375 
z
" id="Cmmi10-41"/>
    </defs>
    <g style="fill:#0000ff;" transform="translate(7.2 43.354167)scale(0.4 -0.4)">
     <use transform="translate(0 0.421875)" xlink:href="#Cmmi10-41"/>
    </g>
   </g>
   <g id="text_2">
    <!-- $B$ -->
    <defs>
     <path d="M 4.984375 0 
Q 4 0 4 1.3125 
Q 4.046875 1.5625 4.1875 2.140625 
Q 4.34375 2.734375 4.578125 3.125 
Q 4.828125 3.515625 5.328125 3.515625 
Q 8.15625 3.515625 10.25 3.65625 
Q 12.359375 3.8125 13.8125 4.203125 
Q 14.984375 4.640625 15.71875 6.890625 
L 29.390625 61.8125 
Q 29.59375 62.796875 29.59375 63.1875 
Q 29.59375 64.265625 28.421875 64.40625 
Q 26.515625 64.796875 21.1875 64.796875 
Q 20.21875 64.796875 20.21875 66.109375 
Q 20.265625 66.359375 20.40625 66.96875 
Q 20.5625 67.578125 20.828125 67.9375 
Q 21.09375 68.3125 21.484375 68.3125 
L 57.328125 68.3125 
Q 60.59375 68.3125 63.796875 67.5 
Q 67 66.703125 69.703125 64.9375 
Q 72.40625 63.1875 74 60.5625 
Q 75.59375 57.953125 75.59375 54.5 
Q 75.59375 50.734375 73.65625 47.5 
Q 71.734375 44.28125 68.671875 41.890625 
Q 65.625 39.5 62.078125 37.953125 
Q 58.546875 36.421875 54.6875 35.6875 
Q 57.421875 35.6875 60.21875 34.609375 
Q 63.03125 33.546875 65.234375 31.6875 
Q 67.4375 29.828125 68.78125 27.234375 
Q 70.125 24.65625 70.125 21.6875 
Q 70.125 15.671875 65.921875 10.6875 
Q 61.71875 5.71875 55.34375 2.859375 
Q 48.96875 0 43.015625 0 
z
M 23.390625 4.296875 
Q 23.390625 3.515625 26.8125 3.515625 
L 41.109375 3.515625 
Q 46 3.515625 50.484375 6.21875 
Q 54.984375 8.9375 57.6875 13.421875 
Q 60.40625 17.921875 60.40625 22.796875 
Q 60.40625 25.78125 59.15625 28.4375 
Q 57.90625 31.109375 55.5625 32.640625 
Q 53.21875 34.1875 50.203125 34.1875 
L 30.71875 34.1875 
L 23.78125 6.5 
Q 23.390625 5.125 23.390625 4.296875 
z
M 31.390625 36.8125 
L 46.578125 36.8125 
Q 51.375 36.8125 55.890625 39.25 
Q 60.40625 41.703125 63.25 45.890625 
Q 66.109375 50.09375 66.109375 54.78125 
Q 66.109375 59.125 63.390625 61.953125 
Q 60.6875 64.796875 56.390625 64.796875 
L 42.671875 64.796875 
Q 39.984375 64.796875 39.0625 64.296875 
Q 38.140625 63.8125 37.5 61.375 
z
" id="Cmmi10-42"/>
    </defs>
    <g style="fill:#0000ff;" transform="translate(256.423077 43.354167)scale(0.4 -0.4)">
     <use transform="translate(0 0.6875)" xlink:href="#Cmmi10-42"/>
    </g>
   </g>
   <g id="text_3">
    <!-- $A\cap B$ -->
    <defs>
     <path d="M 5.609375 -0.390625 
L 5.609375 38.625 
Q 5.609375 45.265625 9.765625 50.09375 
Q 13.921875 54.9375 20.40625 57.375 
Q 26.90625 59.8125 33.296875 59.8125 
Q 38.03125 59.8125 42.890625 58.515625 
Q 47.75 57.234375 51.875 54.515625 
Q 56 51.8125 58.484375 47.75 
Q 60.984375 43.703125 60.984375 38.625 
L 60.984375 -0.390625 
Q 60.984375 -1.171875 60.390625 -1.6875 
Q 59.8125 -2.203125 58.984375 -2.203125 
Q 58.25 -2.203125 57.609375 -1.6875 
Q 56.984375 -1.171875 56.984375 -0.390625 
L 56.984375 38.28125 
Q 56.984375 42.671875 54.8125 46.015625 
Q 52.640625 49.359375 49.234375 51.453125 
Q 45.84375 53.5625 41.59375 54.6875 
Q 37.359375 55.8125 33.296875 55.8125 
Q 27.734375 55.8125 22.28125 53.859375 
Q 16.84375 51.90625 13.234375 47.953125 
Q 9.625 44 9.625 38.28125 
L 9.625 -0.390625 
Q 9.625 -1.171875 8.984375 -1.6875 
Q 8.34375 -2.203125 7.625 -2.203125 
Q 6.78125 -2.203125 6.1875 -1.6875 
Q 5.609375 -1.171875 5.609375 -0.390625 
z
" id="Cmsy10-5c"/>
    </defs>
    <g style="fill:#0000ff;" transform="translate(119.117308 79.405929)scale(0.2 -0.2)">
     <use transform="translate(0 0.421875)" xlink:href="#Cmmi10-41"/>
     <use transform="translate(92.558594 0.421875)" xlink:href="#Cmsy10-5c"/>
     <use transform="translate(176.71875 0.421875)" xlink:href="#Cmmi10-42"/>
    </g>
   </g>
   <g id="text_4">
    <!-- $A\cap B\cap C$ -->
    <defs>
     <path d="M 14.59375 21.578125 
Q 14.59375 15.578125 16.90625 11.015625 
Q 19.234375 6.453125 23.65625 3.875 
Q 28.078125 1.3125 34.078125 1.3125 
Q 40.375 1.3125 46.203125 4.53125 
Q 52.046875 7.765625 56.171875 13.15625 
Q 60.296875 18.5625 61.8125 24.609375 
Q 62.015625 25.203125 62.59375 25.203125 
L 63.8125 25.203125 
Q 64.203125 25.203125 64.453125 24.921875 
Q 64.703125 24.65625 64.703125 24.3125 
Q 64.703125 24.21875 64.59375 24.03125 
Q 62.890625 17.09375 57.984375 11.015625 
Q 53.078125 4.9375 46.234375 1.359375 
Q 39.40625 -2.203125 32.171875 -2.203125 
Q 24.359375 -2.203125 18.15625 1.3125 
Q 11.96875 4.828125 8.515625 11.078125 
Q 5.078125 17.328125 5.078125 25.203125 
Q 5.078125 33.59375 8.828125 41.8125 
Q 12.59375 50.046875 18.9375 56.46875 
Q 25.296875 62.890625 33.421875 66.703125 
Q 41.546875 70.515625 49.90625 70.515625 
Q 53.21875 70.515625 56.25 69.5 
Q 59.28125 68.5 61.859375 66.453125 
Q 64.453125 64.40625 66.109375 61.71875 
L 74.03125 70.3125 
Q 74.03125 70.515625 74.515625 70.515625 
L 75.09375 70.515625 
Q 75.484375 70.515625 75.734375 70.171875 
Q 75.984375 69.828125 75.984375 69.484375 
L 69.1875 42.484375 
Q 69.1875 41.796875 68.40625 41.796875 
L 66.609375 41.796875 
Q 65.828125 41.796875 65.828125 42.921875 
Q 66.21875 45.125 66.21875 48.1875 
Q 66.21875 53.078125 64.546875 57.390625 
Q 62.890625 61.71875 59.390625 64.359375 
Q 55.90625 67 50.875 67 
Q 42.71875 67 35.9375 62.890625 
Q 29.15625 58.796875 24.4375 52.125 
Q 19.734375 45.453125 17.15625 37.328125 
Q 14.59375 29.203125 14.59375 21.578125 
z
" id="Cmmi10-43"/>
    </defs>
    <g style="fill:#0000ff;" transform="translate(114.961538 123.753806)scale(0.15 -0.15)">
     <use transform="translate(0 0.421875)" xlink:href="#Cmmi10-41"/>
     <use transform="translate(92.558594 0.421875)" xlink:href="#Cmsy10-5c"/>
     <use transform="translate(176.71875 0.421875)" xlink:href="#Cmmi10-42"/>
     <use transform="translate(270.058594 0.421875)" xlink:href="#Cmsy10-5c"/>
     <use transform="translate(354.21875 0.421875)" xlink:href="#Cmmi10-43"/>
    </g>
   </g>
   <g id="text_5">
    <!-- $A\cap C$ -->
    <g style="fill:#0000ff;" transform="translate(72.126923 166.704006)scale(0.2 -0.2)">
     <use transform="translate(0 0.421875)" xlink:href="#Cmmi10-41"/>
     <use transform="translate(92.558594 0.421875)" xlink:href="#Cmsy10-5c"/>
     <use transform="translate(176.71875 0.421875)" xlink:href="#Cmmi10-43"/>
    </g>
   </g>
   <g id="text_6">
    <!-- $B\cap C$ -->
    <g style="fill:#0000ff;" transform="translate(171.896154 166.704006)scale(0.2 -0.2)">
     <use transform="translate(0 0.484375)" xlink:href="#Cmmi10-42"/>
     <use transform="translate(93.339844 0.484375)" xlink:href="#Cmsy10-5c"/>
     <use transform="translate(177.5 0.484375)" xlink:href="#Cmmi10-43"/>
    </g>
   </g>
   <g id="text_7">
    <!-- $C$ -->
    <g style="fill:#0000ff;" transform="translate(228.123718 234.578526)scale(0.4 -0.4)">
     <use transform="translate(0 0.484375)" xlink:href="#Cmmi10-43"/>
    </g>
   </g>
   <g id="patch_3">
    <path clip-path="url(#pcb303bf4fc)" d="M 105.341026 181.970513 
C 127.390283 181.970513 148.539429 173.21025 164.130609 157.61907 
C 179.721788 142.027891 188.482051 120.878745 188.482051 98.829487 
C 188.482051 76.780229 179.721788 55.631084 164.130609 40.039904 
C 148.539429 24.448724 127.390283 15.688462 105.341026 15.688462 
C 83.291768 15.688462 62.142622 24.448724 46.551443 40.039904 
C 30.960263 55.631084 22.2 76.780229 22.2 98.829487 
C 22.2 120.878745 30.960263 142.027891 46.551443 157.61907 
C 62.142622 173.21025 83.291768 181.970513 105.341026 181.970513 
z
" style="fill:none;stroke:#000000;stroke-linejoin:miter;stroke-width:5;"/>
   </g>
   <g id="patch_4">
    <path clip-path="url(#pcb303bf4fc)" d="M 188.482051 181.970513 
C 210.531309 181.970513 231.680455 173.21025 247.271634 157.61907 
C 262.862814 142.027891 271.623077 120.878745 271.623077 98.829487 
C 271.623077 76.780229 262.862814 55.631084 247.271634 40.039904 
C 231.680455 24.448724 210.531309 15.688462 188.482051 15.688462 
C 166.432794 15.688462 145.283648 24.448724 129.692468 40.039904 
C 114.101289 55.631084 105.341026 76.780229 105.341026 98.829487 
C 105.341026 120.878745 114.101289 142.027891 129.692468 157.61907 
C 145.283648 173.21025 166.432794 181.970513 188.482051 181.970513 
z
" style="fill:none;stroke:#000000;stroke-linejoin:miter;stroke-width:5;"/>
   </g>
   <g id="patch_5">
    <path clip-path="url(#pcb303bf4fc)" d="M 146.911538 265.111538 
C 168.960796 265.111538 190.109942 256.351276 205.701121 240.760096 
C 221.292301 225.168916 230.052564 204.019771 230.052564 181.970513 
C 230.052564 159.921255 221.292301 138.772109 205.701121 123.18093 
C 190.109942 107.58975 168.960796 98.829487 146.911538 98.829487 
C 124.862281 98.829487 103.713135 107.58975 88.121955 123.18093 
C 72.530776 138.772109 63.770513 159.921255 63.770513 181.970513 
C 63.770513 204.019771 72.530776 225.168916 88.121955 240.760096 
C 103.713135 256.351276 124.862281 265.111538 146.911538 265.111538 
z
" style="fill:none;stroke:#000000;stroke-linejoin:miter;stroke-width:5;"/>
   </g>
  </g>
 </g>
 <defs>
  <clipPath id="pcb303bf4fc">
   <rect height="259.4" width="259.4" x="17.211538" y="10.7"/>
  </clipPath>
 </defs>
</svg>
