<?xml version="1.0" encoding="UTF-8" standalone="no"?>
<!-- Created with Inkscape (http://www.inkscape.org/) -->

<svg
   xmlns:dc="http://purl.org/dc/elements/1.1/"
   xmlns:cc="http://creativecommons.org/ns#"
   xmlns:rdf="http://www.w3.org/1999/02/22-rdf-syntax-ns#"
   xmlns:svg="http://www.w3.org/2000/svg"
   xmlns="http://www.w3.org/2000/svg"
   xmlns:sodipodi="http://sodipodi.sourceforge.net/DTD/sodipodi-0.dtd"
   xmlns:inkscape="http://www.inkscape.org/namespaces/inkscape"
   version="1.1"
   id="svg2"
   xml:space="preserve"
   width="207.07516"
   height="185.29712"
   viewBox="0 0 207.07516 185.29712"
   sodipodi:docname="triang.svg"
   inkscape:version="0.92.4 (5da689c313, 2019-01-14)"><metadata
     id="metadata8"><rdf:RDF><cc:Work
         rdf:about=""><dc:format>image/svg+xml</dc:format><dc:type
           rdf:resource="http://purl.org/dc/dcmitype/StillImage" /><dc:title></dc:title></cc:Work></rdf:RDF></metadata><defs
     id="defs6" /><sodipodi:namedview
     pagecolor="#ffffff"
     bordercolor="#666666"
     borderopacity="1"
     objecttolerance="10"
     gridtolerance="10"
     guidetolerance="10"
     inkscape:pageopacity="0"
     inkscape:pageshadow="2"
     inkscape:window-width="838"
     inkscape:window-height="480"
     id="namedview4"
     showgrid="false"
     inkscape:zoom="1.2736302"
     inkscape:cx="40.725"
     inkscape:cy="92.64856"
     inkscape:window-x="2170"
     inkscape:window-y="172"
     inkscape:window-maximized="0"
     inkscape:current-layer="g10" /><g
     id="g10"
     inkscape:groupmode="layer"
     inkscape:label="triang"
     transform="matrix(1.3333333,0,0,-1.3333333,0,185.29712)"><g
       id="g12"><g
         id="g14"
         transform="matrix(1,0,0,-1,0,138.97284)"><path
           d="M 131.758,120.742 131.875,95.859 15.605,136.77 Z"
           style="fill:#e9c6af;fill-opacity:1;fill-rule:nonzero;stroke:#000000;stroke-width:0.75;stroke-linecap:butt;stroke-linejoin:miter;stroke-miterlimit:4;stroke-dasharray:none;stroke-opacity:1"
           id="path16"
           inkscape:connector-curvature="0" /></g><g
         id="g18"
         transform="matrix(1,0,0,-1,0,138.97284)"><path
           d="M 131.875,95.859 132.004,68.813 15.605,136.77 Z"
           style="fill:#d7e3f4;fill-opacity:1;fill-rule:nonzero;stroke:#000000;stroke-width:0.75;stroke-linecap:butt;stroke-linejoin:miter;stroke-miterlimit:4;stroke-dasharray:none;stroke-opacity:1"
           id="path20"
           inkscape:connector-curvature="0" /></g><g
         id="g22"
         transform="matrix(1,0,0,-1,0,138.97284)"><path
           d="M 132.004,68.813 132.145,38.504 15.605,136.77 Z"
           style="fill:#e9c6af;fill-opacity:1;fill-rule:nonzero;stroke:#000000;stroke-width:0.75;stroke-linecap:butt;stroke-linejoin:miter;stroke-miterlimit:4;stroke-dasharray:none;stroke-opacity:1"
           id="path24"
           inkscape:connector-curvature="0" /></g><g
         id="g26"
         transform="matrix(1,0,0,-1,0,138.97284)"><path
           d="M 15.605,136.77 132.133,40.574 132.281,9.488 Z"
           style="fill:#d7e3f4;fill-opacity:1;fill-rule:nonzero;stroke:#000000;stroke-width:0.75;stroke-linecap:butt;stroke-linejoin:miter;stroke-miterlimit:4;stroke-dasharray:none;stroke-opacity:1"
           id="path28"
           inkscape:connector-curvature="0" /></g><g
         id="g30"
         transform="matrix(1,0,0,-1,0,138.97284)"><path
           d="M 15.605,136.77 132.281,9.488 131.758,120.742 Z"
           style="fill:none;stroke:#000000;stroke-width:0.75;stroke-linecap:butt;stroke-linejoin:miter;stroke-miterlimit:4;stroke-dasharray:none;stroke-opacity:1"
           id="path32"
           inkscape:connector-curvature="0" /></g><g
         id="g34"
         transform="matrix(1,0,0,-1,0,138.97284)"><path
           d="m 134.008,40.574 c 0,1.035 -0.84,1.875 -1.875,1.875 -1.035,0 -1.875,-0.84 -1.875,-1.875 0,-1.035 0.84,-1.875 1.875,-1.875 1.035,0 1.875,0.84 1.875,1.875 z"
           style="fill:#000000;fill-opacity:1;fill-rule:nonzero;stroke:#000000;stroke-width:0.60000002;stroke-linecap:butt;stroke-linejoin:round;stroke-miterlimit:4;stroke-dasharray:none;stroke-opacity:1"
           id="path36"
           inkscape:connector-curvature="0" /></g><g
         id="g38"
         transform="matrix(1,0,0,-1,0,138.97284)"><path
           d="m 133.879,68.813 c 0,1.035 -0.84,1.875 -1.875,1.875 -1.039,0 -1.875,-0.84 -1.875,-1.875 0,-1.036 0.836,-1.875 1.875,-1.875 1.035,0 1.875,0.839 1.875,1.875 z"
           style="fill:#000000;fill-opacity:1;fill-rule:nonzero;stroke:#000000;stroke-width:0.60000002;stroke-linecap:butt;stroke-linejoin:round;stroke-miterlimit:4;stroke-dasharray:none;stroke-opacity:1"
           id="path40"
           inkscape:connector-curvature="0" /></g><g
         id="g42"
         transform="matrix(1,0,0,-1,0,138.97284)"><path
           d="m 133.75,95.859 c 0,1.036 -0.84,1.875 -1.875,1.875 -1.035,0 -1.875,-0.839 -1.875,-1.875 0,-1.035 0.84,-1.875 1.875,-1.875 1.035,0 1.875,0.84 1.875,1.875 z"
           style="fill:#000000;fill-opacity:1;fill-rule:nonzero;stroke:#000000;stroke-width:0.60000002;stroke-linecap:butt;stroke-linejoin:round;stroke-miterlimit:4;stroke-dasharray:none;stroke-opacity:1"
           id="path44"
           inkscape:connector-curvature="0" /></g><g
         id="g46"
         transform="matrix(1,0,0,-1,0,138.97284)"><path
           d="M 15.605,136.77 131.875,95.859"
           style="fill:none;stroke:#000000;stroke-width:0.75;stroke-linecap:butt;stroke-linejoin:miter;stroke-miterlimit:4;stroke-dasharray:none;stroke-opacity:1"
           id="path48"
           inkscape:connector-curvature="0" /></g><path
         d="m 138.508,101.961 -0.02,-0.066 -0.015,-0.047 -0.032,-0.102 -0.015,-0.047 -0.016,-0.05 -0.019,-0.032 -0.016,-0.047 -0.016,-0.035 -0.015,-0.031 -0.016,-0.035 -0.035,-0.031 -0.016,-0.032 -0.031,-0.015 -0.035,-0.035 -0.063,-0.032 -0.05,-0.015 -0.032,-0.02 -0.05,-0.015 -0.063,-0.016 h -0.019 l -0.032,-0.016 h -0.066 l -0.031,-0.015 h -0.098 l -0.051,-0.016 h -0.308 l -0.051,-0.019 h -0.277 c -0.278,0 -0.458,0 -0.458,-0.309 0,-0.195 0.149,-0.195 0.458,-0.195 h 5.386 l -0.293,0.504 h -1.843 c -0.231,0 -0.247,0 -0.36,0.019 -0.148,0.016 -0.195,0.031 -0.195,0.16 0,0.051 0,0.082 0.066,0.375 l 2.235,8.899 c 0.148,0.57 0.179,0.621 0.882,0.621 h 1.747 c 1.582,0 2.937,-0.852 2.937,-3.004 0,-0.785 -0.328,-3.445 -1.699,-5.242 -0.473,-0.586 -1.762,-1.828 -3.77,-1.828 l 0.293,-0.504 c 3.395,0 6.594,3.425 6.594,6.984 0,2.285 -1.387,4.098 -3.816,4.098 h -5.469 c -0.313,0 -0.488,0 -0.488,-0.309 0,-0.195 0.144,-0.195 0.472,-0.195 0.211,0 0.489,-0.02 0.684,-0.035 0.262,-0.032 0.359,-0.082 0.359,-0.262 0,-0.063 -0.015,-0.113 -0.066,-0.309 z"
         style="fill:#000000;fill-opacity:1;fill-rule:nonzero;stroke:none"
         id="path50"
         inkscape:connector-curvature="0" /><path
         d="m 153.195,105.469 v 0.195 h -0.015 v 0.051 h -0.016 v 0.031 h -0.016 v 0.016 h -0.035 l -0.015,0.019 h -0.063 v 0.016 h -0.18 c -0.718,-0.719 -1.765,-0.734 -2.238,-0.734 v -0.41 c 0.278,0 1.028,0 1.664,0.328 v -5.797 c 0,-0.375 0,-0.52 -1.14,-0.52 h -0.442 v -0.41 c 0.211,0.016 1.617,0.051 2.039,0.051 0.344,0 1.782,-0.035 2.043,-0.051 v 0.41 h -0.441 c -1.145,0 -1.145,0.145 -1.145,0.52 z"
         style="fill:#000000;fill-opacity:1;fill-rule:nonzero;stroke:none"
         id="path52"
         inkscape:connector-curvature="0" /><path
         d="M 2.449,2.438 2.387,2.336 2.254,2.141 2.207,2.059 2.141,1.981 2.074,1.914 2.027,1.832 1.961,1.766 1.895,1.703 1.832,1.637 1.781,1.586 1.715,1.539 1.652,1.488 1.586,1.442 1.535,1.406 1.473,1.36 1.406,1.324 1.273,1.262 1.227,1.227 1.094,1.195 1.031,1.164 0.965,1.145 0.898,1.129 0.836,1.113 H 0.77 L 0.703,1.098 0.574,1.082 0.441,1.067 C 0.246,1.047 0.102,1.047 0.102,0.738 c 0,-0.097 0.078,-0.179 0.21,-0.179 0.442,0 0.946,0.066 1.403,0.066 0.539,0 1.109,-0.066 1.617,-0.066 0.098,0 0.328,0 0.328,0.308 0,0.18 -0.148,0.2 -0.281,0.2 -0.356,0.031 -0.75,0.16 -0.75,0.57 0,0.195 0.098,0.375 0.23,0.601 L 4.082,4.313 H 8.18 L 8.129,4.82 H 4.395 L 7.609,10.172 8.129,4.82 8.18,4.313 C 8.211,3.969 8.441,1.766 8.441,1.602 8.441,1.113 7.594,1.067 7.266,1.067 c -0.231,0 -0.391,0 -0.391,-0.329 0,-0.179 0.195,-0.179 0.227,-0.179 0.671,0 1.371,0.066 2.043,0.066 0.406,0 1.417,-0.066 1.828,-0.066 0.097,0 0.293,0 0.293,0.328 0,0.18 -0.164,0.18 -0.375,0.18 -1.012,0 -1.012,0.113 -1.063,0.586 L 8.848,11.789 C 8.816,12.113 8.816,12.18 8.539,12.18 8.277,12.18 8.211,12.067 8.113,11.903 Z"
         style="fill:#000000;fill-opacity:1;fill-rule:nonzero;stroke:none"
         id="path54"
         inkscape:connector-curvature="0" /><path
         d="m 138.488,129.067 -0.015,-0.067 -0.016,-0.047 -0.016,-0.05 -0.015,-0.047 -0.016,-0.051 -0.019,-0.047 -0.016,-0.035 -0.016,-0.047 -0.015,-0.035 -0.032,-0.063 -0.035,-0.035 -0.015,-0.031 -0.032,-0.016 -0.035,-0.031 -0.031,-0.02 -0.031,-0.015 -0.051,-0.016 -0.031,-0.015 -0.051,-0.016 -0.066,-0.02 h -0.016 l -0.031,-0.015 h -0.067 l -0.031,-0.016 h -0.098 l -0.05,-0.015 h -0.309 l -0.051,-0.016 h -0.277 c -0.277,0 -0.442,0 -0.442,-0.328 0,-0.18 0.149,-0.18 0.442,-0.18 h 5.812 c 2.579,0 4.489,1.926 4.489,3.512 0,1.172 -0.946,2.105 -2.516,2.285 1.684,0.309 3.399,1.5 3.399,3.051 0,1.191 -1.079,2.234 -3.02,2.234 l -0.23,-0.504 c 1.421,0 1.761,-0.945 1.761,-1.664 0,-1.422 -1.387,-2.972 -3.379,-2.972 h -2.382 l -0.098,-0.36 h 3.086 c 1.566,0 1.875,-1.191 1.875,-1.89 0,-1.602 -1.449,-3.184 -3.375,-3.184 h -2.207 c -0.227,0 -0.258,0 -0.36,0.016 -0.175,0.015 -0.211,0.031 -0.211,0.164 0,0.047 0,0.082 0.082,0.375 l 1.11,4.519 0.098,0.36 1.011,4.015 c 0.149,0.57 0.18,0.621 0.883,0.621 h 2.106 l 0.23,0.504 h -5.484 c -0.297,0 -0.457,0 -0.457,-0.324 0,-0.18 0.144,-0.18 0.457,-0.18 0.015,0 0.324,0 0.601,-0.031 0.293,-0.035 0.442,-0.051 0.442,-0.262 0,-0.066 -0.016,-0.117 -0.067,-0.312 z"
         style="fill:#000000;fill-opacity:1;fill-rule:nonzero;stroke:none"
         id="path56"
         inkscape:connector-curvature="0" /><path
         d="m 148.121,25.164 v 0.047 l -0.016,0.02 v 0.015 l -0.019,0.016 -0.031,0.031 h -0.016 v 0.016 h -0.051 v 0.019 h -0.047 c -0.05,0 -0.066,-0.019 -0.246,-0.199 l -1.14,-1.254 c -0.149,0.227 -0.883,1.453 -2.696,1.453 -3.64,0 -7.297,-3.593 -7.297,-7.347 0,-2.676 1.926,-4.438 4.411,-4.438 1.418,0 2.66,0.637 3.523,1.387 1.504,1.34 1.781,2.808 1.781,2.855 0,0.164 -0.164,0.164 -0.195,0.164 -0.102,0 -0.18,-0.031 -0.215,-0.164 -0.144,-0.472 -0.504,-1.617 -1.633,-2.562 -1.125,-0.914 -2.152,-1.192 -3.004,-1.192 -1.449,0 -3.179,0.848 -3.179,3.379 0,0.93 0.34,3.559 1.957,5.453 0.996,1.141 2.531,1.957 3.984,1.957 1.649,0 2.61,-1.257 2.61,-3.132 0,-0.637 -0.047,-0.653 -0.047,-0.817 0,-0.164 0.179,-0.164 0.242,-0.164 0.215,0 0.215,0.031 0.297,0.328 z"
         style="fill:#000000;fill-opacity:1;fill-rule:nonzero;stroke:none"
         id="path58"
         inkscape:connector-curvature="0" /><path
         d="m 138.508,70.692 -0.02,-0.063 -0.015,-0.051 -0.016,-0.047 -0.016,-0.05 -0.015,-0.047 -0.016,-0.051 -0.019,-0.031 -0.016,-0.051 -0.016,-0.031 -0.015,-0.035 -0.016,-0.032 -0.035,-0.031 -0.016,-0.035 -0.031,-0.016 -0.035,-0.031 -0.063,-0.031 -0.05,-0.02 -0.032,-0.015 -0.05,-0.016 -0.063,-0.016 h -0.019 l -0.032,-0.015 h -0.066 l -0.031,-0.02 h -0.098 l -0.051,-0.015 h -0.308 l -0.051,-0.016 h -0.277 c -0.278,0 -0.458,0 -0.458,-0.309 0,-0.195 0.149,-0.195 0.458,-0.195 h 5.386 l -0.293,0.504 h -1.843 c -0.231,0 -0.247,0 -0.36,0.016 -0.148,0.015 -0.195,0.035 -0.195,0.164 0,0.05 0,0.082 0.066,0.375 l 2.235,8.894 c 0.148,0.574 0.179,0.621 0.882,0.621 h 1.747 c 1.582,0 2.937,-0.847 2.937,-3.004 0,-0.781 -0.328,-3.441 -1.699,-5.238 -0.473,-0.586 -1.762,-1.828 -3.77,-1.828 l 0.293,-0.504 c 3.395,0 6.594,3.426 6.594,6.984 0,2.286 -1.387,4.098 -3.816,4.098 h -5.469 c -0.313,0 -0.488,0 -0.488,-0.312 0,-0.196 0.144,-0.196 0.472,-0.196 0.211,0 0.489,-0.015 0.684,-0.031 0.262,-0.031 0.359,-0.082 0.359,-0.262 0,-0.066 -0.015,-0.113 -0.066,-0.308 z"
         style="fill:#000000;fill-opacity:1;fill-rule:nonzero;stroke:none"
         id="path60"
         inkscape:connector-curvature="0" /><path
         d="m 155.141,69.063 h -0.395 c -0.031,-0.262 -0.144,-0.934 -0.293,-1.047 -0.082,-0.067 -0.961,-0.067 -1.125,-0.067 h -2.105 c 1.207,1.063 1.597,1.371 2.285,1.911 0.847,0.671 1.633,1.371 1.633,2.449 0,1.371 -1.211,2.219 -2.68,2.219 -1.402,0 -2.367,-0.993 -2.367,-2.04 0,-0.57 0.492,-0.636 0.605,-0.636 0.278,0 0.606,0.195 0.606,0.605 0,0.211 -0.082,0.602 -0.672,0.602 0.359,0.801 1.129,1.062 1.668,1.062 1.14,0 1.726,-0.883 1.726,-1.812 0,-0.981 -0.699,-1.762 -1.058,-2.172 l -2.758,-2.707 c -0.117,-0.098 -0.117,-0.113 -0.117,-0.442 h 4.703 z"
         style="fill:#000000;fill-opacity:1;fill-rule:nonzero;stroke:none"
         id="path62"
         inkscape:connector-curvature="0" /><path
         d="m 138.508,41.625 -0.02,-0.066 -0.015,-0.047 -0.016,-0.051 -0.016,-0.047 -0.015,-0.051 -0.016,-0.046 -0.019,-0.036 -0.016,-0.046 -0.016,-0.036 -0.031,-0.062 -0.035,-0.035 -0.016,-0.032 -0.031,-0.015 -0.035,-0.035 -0.063,-0.032 -0.05,-0.015 -0.032,-0.016 -0.05,-0.019 -0.063,-0.016 h -0.019 l -0.032,-0.016 h -0.066 l -0.031,-0.015 h -0.098 l -0.051,-0.016 h -0.308 l -0.051,-0.015 h -0.277 c -0.278,0 -0.458,0 -0.458,-0.313 0,-0.195 0.149,-0.195 0.458,-0.195 h 5.386 l -0.293,0.508 h -1.843 c -0.231,0 -0.247,0 -0.36,0.015 -0.148,0.016 -0.195,0.031 -0.195,0.164 0,0.047 0,0.078 0.066,0.375 l 2.235,8.895 c 0.148,0.57 0.179,0.621 0.882,0.621 h 1.747 c 1.582,0 2.937,-0.852 2.937,-3.004 0,-0.785 -0.328,-3.445 -1.699,-5.238 -0.473,-0.59 -1.762,-1.828 -3.77,-1.828 l 0.293,-0.508 c 3.395,0 6.594,3.429 6.594,6.984 0,2.285 -1.387,4.098 -3.816,4.098 h -5.469 c -0.313,0 -0.488,0 -0.488,-0.309 0,-0.195 0.144,-0.195 0.472,-0.195 0.211,0 0.489,-0.016 0.684,-0.035 0.262,-0.032 0.359,-0.082 0.359,-0.258 0,-0.067 -0.015,-0.117 -0.066,-0.313 z"
         style="fill:#000000;fill-opacity:1;fill-rule:nonzero;stroke:none"
         id="path64"
         inkscape:connector-curvature="0" /><path
         d="m 152.496,41.707 h 0.16 l 0.082,-0.015 h 0.082 l 0.067,-0.02 0.082,-0.031 0.066,-0.016 0.078,-0.031 0.067,-0.035 0.132,-0.063 0.047,-0.035 0.067,-0.047 0.066,-0.051 0.047,-0.046 0.051,-0.067 0.047,-0.051 0.051,-0.062 0.046,-0.067 0.036,-0.066 0.046,-0.082 0.032,-0.082 0.035,-0.082 0.031,-0.078 0.016,-0.082 0.035,-0.098 0.015,-0.082 0.016,-0.098 0.016,-0.117 v -0.211 l 0.015,-0.113 c 0,-1.406 -0.832,-1.828 -1.484,-1.828 -0.457,0 -1.469,0.129 -1.941,0.801 0.539,0.031 0.652,0.406 0.652,0.636 0,0.356 -0.262,0.618 -0.621,0.618 -0.324,0 -0.637,-0.196 -0.637,-0.653 0,-1.058 1.192,-1.761 2.563,-1.761 1.586,0 2.679,1.062 2.679,2.187 0,0.899 -0.718,1.777 -1.976,2.039 1.191,0.426 1.633,1.274 1.633,1.977 0,0.898 -1.047,1.566 -2.301,1.566 -1.274,0 -2.254,-0.621 -2.254,-1.519 0,-0.391 0.262,-0.602 0.605,-0.602 0.34,0 0.571,0.262 0.571,0.57 0,0.328 -0.231,0.571 -0.571,0.586 0.391,0.508 1.192,0.637 1.598,0.637 0.523,0 1.242,-0.262 1.242,-1.238 0,-0.473 -0.164,-0.996 -0.457,-1.356 -0.375,-0.426 -0.703,-0.457 -1.273,-0.488 -0.278,-0.02 -0.313,-0.02 -0.36,-0.035 -0.015,0 -0.113,-0.016 -0.113,-0.145 0,-0.164 0.098,-0.164 0.293,-0.164 z"
         style="fill:#000000;fill-opacity:1;fill-rule:nonzero;stroke:none"
         id="path66"
         inkscape:connector-curvature="0" /><g
         id="g68"
         transform="matrix(1,0,0,-1,0,138.97284)"><path
           d="m 94.555,64.398 c 0,1.036 -0.84,1.875 -1.875,1.875 -1.035,0 -1.875,-0.839 -1.875,-1.875 0,-1.035 0.84,-1.875 1.875,-1.875 1.035,0 1.875,0.84 1.875,1.875 z"
           style="fill:#000000;fill-opacity:1;fill-rule:nonzero;stroke:#000000;stroke-width:0.60000002;stroke-linecap:butt;stroke-linejoin:round;stroke-miterlimit:4;stroke-dasharray:none;stroke-opacity:1"
           id="path70"
           inkscape:connector-curvature="0" /></g><g
         id="g72"
         transform="matrix(1,0,0,-1,0,138.97284)"><path
           d="m 110.34,44.148 c 0,1.036 -0.836,1.875 -1.875,1.875 -1.035,0 -1.875,-0.839 -1.875,-1.875 0,-1.035 0.84,-1.875 1.875,-1.875 1.039,0 1.875,0.84 1.875,1.875 z"
           style="fill:#000000;fill-opacity:1;fill-rule:nonzero;stroke:#000000;stroke-width:0.60000002;stroke-linecap:butt;stroke-linejoin:round;stroke-miterlimit:4;stroke-dasharray:none;stroke-opacity:1"
           id="path74"
           inkscape:connector-curvature="0" /></g><g
         id="g76"
         transform="matrix(1,0,0,-1,0,138.97284)"><path
           d="m 124.004,55.398 c 0,1.036 -0.84,1.875 -1.875,1.875 -1.035,0 -1.875,-0.839 -1.875,-1.875 0,-1.035 0.84,-1.875 1.875,-1.875 1.035,0 1.875,0.84 1.875,1.875 z"
           style="fill:#000000;fill-opacity:1;fill-rule:nonzero;stroke:#000000;stroke-width:0.60000002;stroke-linecap:butt;stroke-linejoin:round;stroke-miterlimit:4;stroke-dasharray:none;stroke-opacity:1"
           id="path78"
           inkscape:connector-curvature="0" /></g><g
         id="g80"
         transform="matrix(1,0,0,-1,0,138.97284)"><path
           d="m 82.754,91.898 c 0,1.036 -0.84,1.875 -1.875,1.875 -1.035,0 -1.875,-0.839 -1.875,-1.875 0,-1.035 0.84,-1.875 1.875,-1.875 1.035,0 1.875,0.84 1.875,1.875 z"
           style="fill:#000000;fill-opacity:1;fill-rule:nonzero;stroke:#000000;stroke-width:0.60000002;stroke-linecap:butt;stroke-linejoin:round;stroke-miterlimit:4;stroke-dasharray:none;stroke-opacity:1"
           id="path82"
           inkscape:connector-curvature="0" /></g><g
         id="g84"
         transform="matrix(1,0,0,-1,0,138.97284)"><path
           d="m 69.137,114.52 c 0,1.035 -0.836,1.875 -1.875,1.875 -1.035,0 -1.875,-0.84 -1.875,-1.875 0,-1.036 0.84,-1.875 1.875,-1.875 1.039,0 1.875,0.839 1.875,1.875 z"
           style="fill:#000000;fill-opacity:1;fill-rule:nonzero;stroke:#000000;stroke-width:0.60000002;stroke-linecap:butt;stroke-linejoin:round;stroke-miterlimit:4;stroke-dasharray:none;stroke-opacity:1"
           id="path86"
           inkscape:connector-curvature="0" /></g><g
         id="g88"
         transform="matrix(1,0,0,-1,0,138.97284)"><path
           d="m 102.914,97.758 c 0,1.035 -0.84,1.875 -1.875,1.875 -1.035,0 -1.875,-0.84 -1.875,-1.875 0,-1.035 0.84,-1.875 1.875,-1.875 1.035,0 1.875,0.84 1.875,1.875 z"
           style="fill:#000000;fill-opacity:1;fill-rule:nonzero;stroke:#000000;stroke-width:0.60000002;stroke-linecap:butt;stroke-linejoin:round;stroke-miterlimit:4;stroke-dasharray:none;stroke-opacity:1"
           id="path90"
           inkscape:connector-curvature="0" /></g><g
         id="g92"
         transform="matrix(1,0,0,-1,0,138.97284)"><path
           d="m 69.539,123.555 c 0,1.035 -0.84,1.875 -1.875,1.875 -1.035,0 -1.875,-0.84 -1.875,-1.875 0,-1.039 0.84,-1.875 1.875,-1.875 1.035,0 1.875,0.836 1.875,1.875 z"
           style="fill:#000000;fill-opacity:1;fill-rule:nonzero;stroke:#000000;stroke-width:0.60000002;stroke-linecap:butt;stroke-linejoin:round;stroke-miterlimit:4;stroke-dasharray:none;stroke-opacity:1"
           id="path94"
           inkscape:connector-curvature="0" /></g><g
         id="g96"
         transform="matrix(1,0,0,-1,0,138.97284)"><path
           d="m 67.664,123.555 34.106,-2.532 16.339,-15.535 z"
           style="fill:#ff0000;fill-opacity:1;fill-rule:nonzero;stroke:#000000;stroke-width:0.80000001;stroke-linecap:butt;stroke-linejoin:miter;stroke-miterlimit:4;stroke-dasharray:none;stroke-opacity:1"
           id="path98"
           inkscape:connector-curvature="0" /></g><g
         id="g100"
         transform="matrix(1,0,0,-1,0,138.97284)"><path
           d="m 103.645,121.023 c 0,1.036 -0.84,1.875 -1.875,1.875 -1.036,0 -1.875,-0.839 -1.875,-1.875 0,-1.035 0.839,-1.875 1.875,-1.875 1.035,0 1.875,0.84 1.875,1.875 z"
           style="fill:#000000;fill-opacity:1;fill-rule:nonzero;stroke:#000000;stroke-width:0.60000002;stroke-linecap:butt;stroke-linejoin:round;stroke-miterlimit:4;stroke-dasharray:none;stroke-opacity:1"
           id="path102"
           inkscape:connector-curvature="0" /></g><g
         id="g104"
         transform="matrix(1,0,0,-1,0,138.97284)"><path
           d="m 119.984,105.488 c 0,1.035 -0.839,1.875 -1.875,1.875 -1.035,0 -1.875,-0.84 -1.875,-1.875 0,-1.035 0.84,-1.875 1.875,-1.875 1.036,0 1.875,0.84 1.875,1.875 z"
           style="fill:#000000;fill-opacity:1;fill-rule:nonzero;stroke:#000000;stroke-width:0.60000002;stroke-linecap:butt;stroke-linejoin:round;stroke-miterlimit:4;stroke-dasharray:none;stroke-opacity:1"
           id="path106"
           inkscape:connector-curvature="0" /></g><g
         id="g108"
         transform="matrix(1,0,0,-1,0,138.97284)"><path
           d="m 134.156,9.488 c 0,1.035 -0.84,1.875 -1.875,1.875 -1.039,0 -1.875,-0.84 -1.875,-1.875 0,-1.035 0.836,-1.875 1.875,-1.875 1.035,0 1.875,0.84 1.875,1.875 z"
           style="fill:#000000;fill-opacity:1;fill-rule:nonzero;stroke:#000000;stroke-width:0.60000002;stroke-linecap:butt;stroke-linejoin:round;stroke-miterlimit:4;stroke-dasharray:none;stroke-opacity:1"
           id="path110"
           inkscape:connector-curvature="0" /></g><g
         id="g112"
         transform="matrix(1,0,0,-1,0,138.97284)"><path
           d="m 133.633,120.742 c 0,1.035 -0.836,1.875 -1.875,1.875 -1.035,0 -1.875,-0.84 -1.875,-1.875 0,-1.035 0.84,-1.875 1.875,-1.875 1.039,0 1.875,0.84 1.875,1.875 z"
           style="fill:#000000;fill-opacity:1;fill-rule:nonzero;stroke:#000000;stroke-width:0.60000002;stroke-linecap:butt;stroke-linejoin:round;stroke-miterlimit:4;stroke-dasharray:none;stroke-opacity:1"
           id="path114"
           inkscape:connector-curvature="0" /></g><g
         id="g116"
         transform="matrix(1,0,0,-1,0,138.97284)"><path
           d="m 17.48,136.77 c 0,1.035 -0.839,1.875 -1.875,1.875 -1.035,0 -1.875,-0.84 -1.875,-1.875 0,-1.04 0.84,-1.875 1.875,-1.875 1.036,0 1.875,0.835 1.875,1.875 z"
           style="fill:#000000;fill-opacity:1;fill-rule:nonzero;stroke:#000000;stroke-width:0.60000002;stroke-linecap:butt;stroke-linejoin:round;stroke-miterlimit:4;stroke-dasharray:none;stroke-opacity:1"
           id="path118"
           inkscape:connector-curvature="0" /></g></g></g></svg>