<?xml version="1.0" encoding="utf-8" standalone="no"?>
<!DOCTYPE svg PUBLIC "-//W3C//DTD SVG 1.1//EN"
  "http://www.w3.org/Graphics/SVG/1.1/DTD/svg11.dtd">
<!-- Created with matplotlib (http://matplotlib.org/) -->
<svg height="204.709902pt" version="1.1" viewBox="0 0 211.326052 204.709902" width="211.326052pt" xmlns="http://www.w3.org/2000/svg" xmlns:xlink="http://www.w3.org/1999/xlink">
 <defs>
  <style type="text/css">
*{stroke-linecap:butt;stroke-linejoin:round;}
  </style>
 </defs>
 <g id="figure_1">
  <g id="patch_1">
   <path d="M 0 204.709902 
L 211.326052 204.709902 
L 211.326052 0 
L 0 0 
z
" style="fill:#ffffff;"/>
  </g>
  <g id="axes_1">
   <g id="patch_2">
    <path d="M 11.899979 193.767163 
L 199.426073 193.767163 
L 199.426073 10.942739 
L 11.899979 10.942739 
z
" style="fill:#ffffff;"/>
   </g>
   <g id="patch_3">
    <path clip-path="url(#p3534174ded)" d="M 113.061052 32.953659 
C 113.061052 31.982159 112.869688 31.020106 112.497911 30.122557 
C 112.126134 29.225008 111.581174 28.409419 110.89422 27.722464 
C 110.207266 27.03551 109.391677 26.490551 108.494128 26.118774 
C 107.596579 25.746997 106.634526 25.555633 105.663026 25.555633 
C 104.691526 25.555633 103.729473 25.746997 102.831924 26.118774 
C 101.934375 26.490551 101.118786 27.03551 100.431832 27.722464 
C 99.744877 28.409419 99.199918 29.225008 98.828141 30.122557 
C 98.456364 31.020106 98.265 31.982159 98.265 32.953659 
C 98.265 33.925159 98.456364 34.887212 98.828141 35.784761 
C 99.199918 36.68231 99.744877 37.497899 100.431832 38.184853 
C 101.118786 38.871807 101.934375 39.416767 102.831924 39.788544 
C 103.729473 40.160321 104.691526 40.351685 105.663026 40.351685 
C 106.634526 40.351685 107.596579 40.160321 108.494128 39.788544 
C 109.391677 39.416767 110.207266 38.871807 110.89422 38.184853 
C 111.581174 37.497899 112.126134 36.68231 112.497911 35.784761 
C 112.869688 34.887212 113.061052 33.925159 113.061052 32.953659 
M 105.663026 32.953659 
M 113.061052 32.953659 
z
"/>
   </g>
   <g id="patch_4">
    <path clip-path="url(#p3534174ded)" d="M 170.901149 60.807981 
C 170.901149 59.836481 170.709784 58.874428 170.338007 57.976879 
C 169.96623 57.07933 169.421271 56.263741 168.734317 55.576787 
C 168.047363 54.889833 167.231773 54.344873 166.334225 53.973096 
C 165.436676 53.60132 164.474622 53.409955 163.503123 53.409955 
C 162.531623 53.409955 161.569569 53.60132 160.672021 53.973096 
C 159.774472 54.344873 158.958882 54.889833 158.271928 55.576787 
C 157.584974 56.263741 157.040015 57.07933 156.668238 57.976879 
C 156.296461 58.874428 156.105097 59.836481 156.105097 60.807981 
C 156.105097 61.779481 156.296461 62.741534 156.668238 63.639083 
C 157.040015 64.536632 157.584974 65.352222 158.271928 66.039176 
C 158.958882 66.72613 159.774472 67.271089 160.672021 67.642866 
C 161.569569 68.014643 162.531623 68.206007 163.503123 68.206007 
C 164.474622 68.206007 165.436676 68.014643 166.334225 67.642866 
C 167.231773 67.271089 168.047363 66.72613 168.734317 66.039176 
C 169.421271 65.352222 169.96623 64.536632 170.338007 63.639083 
C 170.709784 62.741534 170.901149 61.779481 170.901149 60.807981 
M 163.503123 60.807981 
M 170.901149 60.807981 
z
"/>
   </g>
   <g id="patch_5">
    <path clip-path="url(#p3534174ded)" d="M 185.186473 123.396076 
C 185.186473 122.424576 184.995108 121.462523 184.623332 120.564974 
C 184.251555 119.667425 183.706595 118.851836 183.019641 118.164881 
C 182.332687 117.477927 181.517098 116.932968 180.619549 116.561191 
C 179.722 116.189414 178.759947 115.99805 177.788447 115.99805 
C 176.816947 115.99805 175.854894 116.189414 174.957345 116.561191 
C 174.059796 116.932968 173.244206 117.477927 172.557252 118.164881 
C 171.870298 118.851836 171.325339 119.667425 170.953562 120.564974 
C 170.581785 121.462523 170.390421 122.424576 170.390421 123.396076 
C 170.390421 124.367576 170.581785 125.329629 170.953562 126.227178 
C 171.325339 127.124727 171.870298 127.940316 172.557252 128.62727 
C 173.244206 129.314224 174.059796 129.859184 174.957345 130.230961 
C 175.854894 130.602738 176.816947 130.794102 177.788447 130.794102 
C 178.759947 130.794102 179.722 130.602738 180.619549 130.230961 
C 181.517098 129.859184 182.332687 129.314224 183.019641 128.62727 
C 183.706595 127.940316 184.251555 127.124727 184.623332 126.227178 
C 184.995108 125.329629 185.186473 124.367576 185.186473 123.396076 
M 177.788447 123.396076 
M 185.186473 123.396076 
z
"/>
   </g>
   <g id="patch_6">
    <path clip-path="url(#p3534174ded)" d="M 145.159884 173.587831 
C 145.159884 172.616331 144.96852 171.654277 144.596743 170.756729 
C 144.224966 169.85918 143.680006 169.04359 142.993052 168.356636 
C 142.306098 167.669682 141.490509 167.124723 140.59296 166.752946 
C 139.695411 166.381169 138.733358 166.189805 137.761858 166.189805 
C 136.790358 166.189805 135.828305 166.381169 134.930756 166.752946 
C 134.033207 167.124723 133.217618 167.669682 132.530664 168.356636 
C 131.843709 169.04359 131.29875 169.85918 130.926973 170.756729 
C 130.555196 171.654277 130.363832 172.616331 130.363832 173.587831 
C 130.363832 174.55933 130.555196 175.521384 130.926973 176.418933 
C 131.29875 177.316481 131.843709 178.132071 132.530664 178.819025 
C 133.217618 179.505979 134.033207 180.050938 134.930756 180.422715 
C 135.828305 180.794492 136.790358 180.985857 137.761858 180.985857 
C 138.733358 180.985857 139.695411 180.794492 140.59296 180.422715 
C 141.490509 180.050938 142.306098 179.505979 142.993052 178.819025 
C 143.680006 178.132071 144.224966 177.316481 144.596743 176.418933 
C 144.96852 175.521384 145.159884 174.55933 145.159884 173.587831 
M 137.761858 173.587831 
M 145.159884 173.587831 
z
"/>
   </g>
   <g id="patch_7">
    <path clip-path="url(#p3534174ded)" d="M 80.96222 173.587831 
C 80.96222 172.616331 80.770856 171.654277 80.399079 170.756729 
C 80.027302 169.85918 79.482342 169.04359 78.795388 168.356636 
C 78.108434 167.669682 77.292845 167.124723 76.395296 166.752946 
C 75.497747 166.381169 74.535694 166.189805 73.564194 166.189805 
C 72.592694 166.189805 71.630641 166.381169 70.733092 166.752946 
C 69.835543 167.124723 69.019954 167.669682 68.333 168.356636 
C 67.646045 169.04359 67.101086 169.85918 66.729309 170.756729 
C 66.357532 171.654277 66.166168 172.616331 66.166168 173.587831 
C 66.166168 174.55933 66.357532 175.521384 66.729309 176.418933 
C 67.101086 177.316481 67.646045 178.132071 68.333 178.819025 
C 69.019954 179.505979 69.835543 180.050938 70.733092 180.422715 
C 71.630641 180.794492 72.592694 180.985857 73.564194 180.985857 
C 74.535694 180.985857 75.497747 180.794492 76.395296 180.422715 
C 77.292845 180.050938 78.108434 179.505979 78.795388 178.819025 
C 79.482342 178.132071 80.027302 177.316481 80.399079 176.418933 
C 80.770856 175.521384 80.96222 174.55933 80.96222 173.587831 
M 73.564194 173.587831 
M 80.96222 173.587831 
z
"/>
   </g>
   <g id="patch_8">
    <path clip-path="url(#p3534174ded)" d="M 40.935631 123.396076 
C 40.935631 122.424576 40.744267 121.462523 40.37249 120.564974 
C 40.000713 119.667425 39.455754 118.851836 38.7688 118.164881 
C 38.081845 117.477927 37.266256 116.932968 36.368707 116.561191 
C 35.471158 116.189414 34.509105 115.99805 33.537605 115.99805 
C 32.566105 115.99805 31.604052 116.189414 30.706503 116.561191 
C 29.808954 116.932968 28.993365 117.477927 28.306411 118.164881 
C 27.619457 118.851836 27.074497 119.667425 26.70272 120.564974 
C 26.330943 121.462523 26.139579 122.424576 26.139579 123.396076 
C 26.139579 124.367576 26.330943 125.329629 26.70272 126.227178 
C 27.074497 127.124727 27.619457 127.940316 28.306411 128.62727 
C 28.993365 129.314224 29.808954 129.859184 30.706503 130.230961 
C 31.604052 130.602738 32.566105 130.794102 33.537605 130.794102 
C 34.509105 130.794102 35.471158 130.602738 36.368707 130.230961 
C 37.266256 129.859184 38.081845 129.314224 38.7688 128.62727 
C 39.455754 127.940316 40.000713 127.124727 40.37249 126.227178 
C 40.744267 125.329629 40.935631 124.367576 40.935631 123.396076 
M 33.537605 123.396076 
M 40.935631 123.396076 
z
"/>
   </g>
   <g id="patch_9">
    <path clip-path="url(#p3534174ded)" d="M 55.220955 60.807981 
C 55.220955 59.836481 55.029591 58.874428 54.657814 57.976879 
C 54.286037 57.07933 53.741078 56.263741 53.054124 55.576787 
C 52.36717 54.889833 51.55158 54.344873 50.654031 53.973096 
C 49.756482 53.60132 48.794429 53.409955 47.822929 53.409955 
C 46.851429 53.409955 45.889376 53.60132 44.991827 53.973096 
C 44.094278 54.344873 43.278689 54.889833 42.591735 55.576787 
C 41.904781 56.263741 41.359821 57.07933 40.988044 57.976879 
C 40.616268 58.874428 40.424903 59.836481 40.424903 60.807981 
C 40.424903 61.779481 40.616268 62.741534 40.988044 63.639083 
C 41.359821 64.536632 41.904781 65.352222 42.591735 66.039176 
C 43.278689 66.72613 44.094278 67.271089 44.991827 67.642866 
C 45.889376 68.014643 46.851429 68.206007 47.822929 68.206007 
C 48.794429 68.206007 49.756482 68.014643 50.654031 67.642866 
C 51.55158 67.271089 52.36717 66.72613 53.054124 66.039176 
C 53.741078 65.352222 54.286037 64.536632 54.657814 63.639083 
C 55.029591 62.741534 55.220955 61.779481 55.220955 60.807981 
M 47.822929 60.807981 
M 55.220955 60.807981 
z
"/>
   </g>
   <g id="matplotlib.axis_1"/>
   <g id="matplotlib.axis_2"/>
   <g id="text_1">
    <!-- Domingo -->
    <defs>
     <path d="M 19.671875 64.796875 
L 19.671875 8.109375 
L 31.59375 8.109375 
Q 46.6875 8.109375 53.6875 14.9375 
Q 60.6875 21.78125 60.6875 36.53125 
Q 60.6875 51.171875 53.6875 57.984375 
Q 46.6875 64.796875 31.59375 64.796875 
z
M 9.8125 72.90625 
L 30.078125 72.90625 
Q 51.265625 72.90625 61.171875 64.09375 
Q 71.09375 55.28125 71.09375 36.53125 
Q 71.09375 17.671875 61.125 8.828125 
Q 51.171875 0 30.078125 0 
L 9.8125 0 
z
" id="DejaVuSans-44"/>
     <path d="M 30.609375 48.390625 
Q 23.390625 48.390625 19.1875 42.75 
Q 14.984375 37.109375 14.984375 27.296875 
Q 14.984375 17.484375 19.15625 11.84375 
Q 23.34375 6.203125 30.609375 6.203125 
Q 37.796875 6.203125 41.984375 11.859375 
Q 46.1875 17.53125 46.1875 27.296875 
Q 46.1875 37.015625 41.984375 42.703125 
Q 37.796875 48.390625 30.609375 48.390625 
z
M 30.609375 56 
Q 42.328125 56 49.015625 48.375 
Q 55.71875 40.765625 55.71875 27.296875 
Q 55.71875 13.875 49.015625 6.21875 
Q 42.328125 -1.421875 30.609375 -1.421875 
Q 18.84375 -1.421875 12.171875 6.21875 
Q 5.515625 13.875 5.515625 27.296875 
Q 5.515625 40.765625 12.171875 48.375 
Q 18.84375 56 30.609375 56 
z
" id="DejaVuSans-6f"/>
     <path d="M 52 44.1875 
Q 55.375 50.25 60.0625 53.125 
Q 64.75 56 71.09375 56 
Q 79.640625 56 84.28125 50.015625 
Q 88.921875 44.046875 88.921875 33.015625 
L 88.921875 0 
L 79.890625 0 
L 79.890625 32.71875 
Q 79.890625 40.578125 77.09375 44.375 
Q 74.3125 48.1875 68.609375 48.1875 
Q 61.625 48.1875 57.5625 43.546875 
Q 53.515625 38.921875 53.515625 30.90625 
L 53.515625 0 
L 44.484375 0 
L 44.484375 32.71875 
Q 44.484375 40.625 41.703125 44.40625 
Q 38.921875 48.1875 33.109375 48.1875 
Q 26.21875 48.1875 22.15625 43.53125 
Q 18.109375 38.875 18.109375 30.90625 
L 18.109375 0 
L 9.078125 0 
L 9.078125 54.6875 
L 18.109375 54.6875 
L 18.109375 46.1875 
Q 21.1875 51.21875 25.484375 53.609375 
Q 29.78125 56 35.6875 56 
Q 41.65625 56 45.828125 52.96875 
Q 50 49.953125 52 44.1875 
z
" id="DejaVuSans-6d"/>
     <path d="M 9.421875 54.6875 
L 18.40625 54.6875 
L 18.40625 0 
L 9.421875 0 
z
M 9.421875 75.984375 
L 18.40625 75.984375 
L 18.40625 64.59375 
L 9.421875 64.59375 
z
" id="DejaVuSans-69"/>
     <path d="M 54.890625 33.015625 
L 54.890625 0 
L 45.90625 0 
L 45.90625 32.71875 
Q 45.90625 40.484375 42.875 44.328125 
Q 39.84375 48.1875 33.796875 48.1875 
Q 26.515625 48.1875 22.3125 43.546875 
Q 18.109375 38.921875 18.109375 30.90625 
L 18.109375 0 
L 9.078125 0 
L 9.078125 54.6875 
L 18.109375 54.6875 
L 18.109375 46.1875 
Q 21.34375 51.125 25.703125 53.5625 
Q 30.078125 56 35.796875 56 
Q 45.21875 56 50.046875 50.171875 
Q 54.890625 44.34375 54.890625 33.015625 
z
" id="DejaVuSans-6e"/>
     <path d="M 45.40625 27.984375 
Q 45.40625 37.75 41.375 43.109375 
Q 37.359375 48.484375 30.078125 48.484375 
Q 22.859375 48.484375 18.828125 43.109375 
Q 14.796875 37.75 14.796875 27.984375 
Q 14.796875 18.265625 18.828125 12.890625 
Q 22.859375 7.515625 30.078125 7.515625 
Q 37.359375 7.515625 41.375 12.890625 
Q 45.40625 18.265625 45.40625 27.984375 
z
M 54.390625 6.78125 
Q 54.390625 -7.171875 48.1875 -13.984375 
Q 42 -20.796875 29.203125 -20.796875 
Q 24.46875 -20.796875 20.265625 -20.09375 
Q 16.0625 -19.390625 12.109375 -17.921875 
L 12.109375 -9.1875 
Q 16.0625 -11.328125 19.921875 -12.34375 
Q 23.78125 -13.375 27.78125 -13.375 
Q 36.625 -13.375 41.015625 -8.765625 
Q 45.40625 -4.15625 45.40625 5.171875 
L 45.40625 9.625 
Q 42.625 4.78125 38.28125 2.390625 
Q 33.9375 0 27.875 0 
Q 17.828125 0 11.671875 7.65625 
Q 5.515625 15.328125 5.515625 27.984375 
Q 5.515625 40.671875 11.671875 48.328125 
Q 17.828125 56 27.875 56 
Q 33.9375 56 38.28125 53.609375 
Q 42.625 51.21875 45.40625 46.390625 
L 45.40625 54.6875 
L 54.390625 54.6875 
z
" id="DejaVuSans-67"/>
    </defs>
    <g style="fill:#0000ff;" transform="translate(71.806385 18.597656)scale(0.15 -0.15)">
     <use xlink:href="#DejaVuSans-44"/>
     <use x="77.001953" xlink:href="#DejaVuSans-6f"/>
     <use x="138.183594" xlink:href="#DejaVuSans-6d"/>
     <use x="235.595703" xlink:href="#DejaVuSans-69"/>
     <use x="263.378906" xlink:href="#DejaVuSans-6e"/>
     <use x="326.757812" xlink:href="#DejaVuSans-67"/>
     <use x="390.234375" xlink:href="#DejaVuSans-6f"/>
    </g>
   </g>
   <g id="text_2">
    <!-- 2ª -->
    <defs>
     <path d="M 19.1875 8.296875 
L 53.609375 8.296875 
L 53.609375 0 
L 7.328125 0 
L 7.328125 8.296875 
Q 12.9375 14.109375 22.625 23.890625 
Q 32.328125 33.6875 34.8125 36.53125 
Q 39.546875 41.84375 41.421875 45.53125 
Q 43.3125 49.21875 43.3125 52.78125 
Q 43.3125 58.59375 39.234375 62.25 
Q 35.15625 65.921875 28.609375 65.921875 
Q 23.96875 65.921875 18.8125 64.3125 
Q 13.671875 62.703125 7.8125 59.421875 
L 7.8125 69.390625 
Q 13.765625 71.78125 18.9375 73 
Q 24.125 74.21875 28.421875 74.21875 
Q 39.75 74.21875 46.484375 68.546875 
Q 53.21875 62.890625 53.21875 53.421875 
Q 53.21875 48.921875 51.53125 44.890625 
Q 49.859375 40.875 45.40625 35.40625 
Q 44.1875 33.984375 37.640625 27.21875 
Q 31.109375 20.453125 19.1875 8.296875 
z
" id="DejaVuSans-32"/>
     <path d="M 6.78125 28.90625 
L 40.375 28.90625 
L 40.375 22.90625 
L 6.78125 22.90625 
z
M 40.28125 56.890625 
L 40.28125 35.015625 
L 33.015625 35.015625 
L 33.015625 40.484375 
Q 30.859375 37.40625 27.34375 35.734375 
Q 23.828125 34.078125 19.28125 34.078125 
Q 13.03125 34.078125 9.3125 37.375 
Q 5.609375 40.671875 5.609375 46.1875 
Q 5.609375 52.78125 10.265625 56.140625 
Q 14.9375 59.515625 24.125 59.515625 
L 33.015625 59.515625 
L 33.015625 59.71875 
Q 33.015625 64.15625 30.15625 66.375 
Q 27.296875 68.609375 21.578125 68.609375 
Q 18.5625 68.609375 15.234375 67.765625 
Q 11.921875 66.9375 8.59375 65.28125 
L 8.59375 71.484375 
Q 12.15625 72.859375 15.6875 73.53125 
Q 19.234375 74.21875 22.609375 74.21875 
Q 31.546875 74.21875 35.90625 69.921875 
Q 40.28125 65.625 40.28125 56.890625 
z
M 26.8125 53.90625 
Q 18.953125 53.90625 15.875 52.265625 
Q 12.796875 50.640625 12.796875 46.78125 
Q 12.796875 43.65625 15.1875 41.765625 
Q 17.578125 39.890625 21.578125 39.890625 
Q 26.65625 39.890625 29.828125 43.40625 
Q 33.015625 46.921875 33.015625 52.484375 
L 33.015625 53.90625 
z
" id="DejaVuSans-aa"/>
    </defs>
    <g style="fill:#0000ff;" transform="translate(169.656897 53.415559)scale(0.15 -0.15)">
     <use xlink:href="#DejaVuSans-32"/>
     <use x="63.623047" xlink:href="#DejaVuSans-aa"/>
    </g>
   </g>
   <g id="text_3">
    <!-- 3ª -->
    <defs>
     <path d="M 40.578125 39.3125 
Q 47.65625 37.796875 51.625 33 
Q 55.609375 28.21875 55.609375 21.1875 
Q 55.609375 10.40625 48.1875 4.484375 
Q 40.765625 -1.421875 27.09375 -1.421875 
Q 22.515625 -1.421875 17.65625 -0.515625 
Q 12.796875 0.390625 7.625 2.203125 
L 7.625 11.71875 
Q 11.71875 9.328125 16.59375 8.109375 
Q 21.484375 6.890625 26.8125 6.890625 
Q 36.078125 6.890625 40.9375 10.546875 
Q 45.796875 14.203125 45.796875 21.1875 
Q 45.796875 27.640625 41.28125 31.265625 
Q 36.765625 34.90625 28.71875 34.90625 
L 20.21875 34.90625 
L 20.21875 43.015625 
L 29.109375 43.015625 
Q 36.375 43.015625 40.234375 45.921875 
Q 44.09375 48.828125 44.09375 54.296875 
Q 44.09375 59.90625 40.109375 62.90625 
Q 36.140625 65.921875 28.71875 65.921875 
Q 24.65625 65.921875 20.015625 65.03125 
Q 15.375 64.15625 9.8125 62.3125 
L 9.8125 71.09375 
Q 15.4375 72.65625 20.34375 73.4375 
Q 25.25 74.21875 29.59375 74.21875 
Q 40.828125 74.21875 47.359375 69.109375 
Q 53.90625 64.015625 53.90625 55.328125 
Q 53.90625 49.265625 50.4375 45.09375 
Q 46.96875 40.921875 40.578125 39.3125 
z
" id="DejaVuSans-33"/>
    </defs>
    <g style="fill:#0000ff;" transform="translate(187.513552 131.650677)scale(0.15 -0.15)">
     <use xlink:href="#DejaVuSans-33"/>
     <use x="63.623047" xlink:href="#DejaVuSans-aa"/>
    </g>
   </g>
   <g id="text_4">
    <!-- 4ª -->
    <defs>
     <path d="M 37.796875 64.3125 
L 12.890625 25.390625 
L 37.796875 25.390625 
z
M 35.203125 72.90625 
L 47.609375 72.90625 
L 47.609375 25.390625 
L 58.015625 25.390625 
L 58.015625 17.1875 
L 47.609375 17.1875 
L 47.609375 0 
L 37.796875 0 
L 37.796875 17.1875 
L 4.890625 17.1875 
L 4.890625 26.703125 
z
" id="DejaVuSans-34"/>
    </defs>
    <g style="fill:#0000ff;" transform="translate(137.480316 194.390371)scale(0.15 -0.15)">
     <use xlink:href="#DejaVuSans-34"/>
     <use x="63.623047" xlink:href="#DejaVuSans-aa"/>
    </g>
   </g>
   <g id="text_5">
    <!-- 5ª -->
    <defs>
     <path d="M 10.796875 72.90625 
L 49.515625 72.90625 
L 49.515625 64.59375 
L 19.828125 64.59375 
L 19.828125 46.734375 
Q 21.96875 47.46875 24.109375 47.828125 
Q 26.265625 48.1875 28.421875 48.1875 
Q 40.625 48.1875 47.75 41.5 
Q 54.890625 34.8125 54.890625 23.390625 
Q 54.890625 11.625 47.5625 5.09375 
Q 40.234375 -1.421875 26.90625 -1.421875 
Q 22.3125 -1.421875 17.546875 -0.640625 
Q 12.796875 0.140625 7.71875 1.703125 
L 7.71875 11.625 
Q 12.109375 9.234375 16.796875 8.0625 
Q 21.484375 6.890625 26.703125 6.890625 
Q 35.15625 6.890625 40.078125 11.328125 
Q 45.015625 15.765625 45.015625 23.390625 
Q 45.015625 31 40.078125 35.4375 
Q 35.15625 39.890625 26.703125 39.890625 
Q 22.75 39.890625 18.8125 39.015625 
Q 14.890625 38.140625 10.796875 36.28125 
z
" id="DejaVuSans-35"/>
    </defs>
    <g style="fill:#0000ff;" transform="translate(57.233236 194.390371)scale(0.15 -0.15)">
     <use xlink:href="#DejaVuSans-35"/>
     <use x="63.623047" xlink:href="#DejaVuSans-aa"/>
    </g>
   </g>
   <g id="text_6">
    <!-- 6ª -->
    <defs>
     <path d="M 33.015625 40.375 
Q 26.375 40.375 22.484375 35.828125 
Q 18.609375 31.296875 18.609375 23.390625 
Q 18.609375 15.53125 22.484375 10.953125 
Q 26.375 6.390625 33.015625 6.390625 
Q 39.65625 6.390625 43.53125 10.953125 
Q 47.40625 15.53125 47.40625 23.390625 
Q 47.40625 31.296875 43.53125 35.828125 
Q 39.65625 40.375 33.015625 40.375 
z
M 52.59375 71.296875 
L 52.59375 62.3125 
Q 48.875 64.0625 45.09375 64.984375 
Q 41.3125 65.921875 37.59375 65.921875 
Q 27.828125 65.921875 22.671875 59.328125 
Q 17.53125 52.734375 16.796875 39.40625 
Q 19.671875 43.65625 24.015625 45.921875 
Q 28.375 48.1875 33.59375 48.1875 
Q 44.578125 48.1875 50.953125 41.515625 
Q 57.328125 34.859375 57.328125 23.390625 
Q 57.328125 12.15625 50.6875 5.359375 
Q 44.046875 -1.421875 33.015625 -1.421875 
Q 20.359375 -1.421875 13.671875 8.265625 
Q 6.984375 17.96875 6.984375 36.375 
Q 6.984375 53.65625 15.1875 63.9375 
Q 23.390625 74.21875 37.203125 74.21875 
Q 40.921875 74.21875 44.703125 73.484375 
Q 48.484375 72.75 52.59375 71.296875 
z
" id="DejaVuSans-36"/>
    </defs>
    <g style="fill:#0000ff;" transform="translate(7.2 131.650677)scale(0.15 -0.15)">
     <use xlink:href="#DejaVuSans-36"/>
     <use x="63.623047" xlink:href="#DejaVuSans-aa"/>
    </g>
   </g>
   <g id="text_7">
    <!-- Sab. -->
    <defs>
     <path d="M 53.515625 70.515625 
L 53.515625 60.890625 
Q 47.90625 63.578125 42.921875 64.890625 
Q 37.9375 66.21875 33.296875 66.21875 
Q 25.25 66.21875 20.875 63.09375 
Q 16.5 59.96875 16.5 54.203125 
Q 16.5 49.359375 19.40625 46.890625 
Q 22.3125 44.4375 30.421875 42.921875 
L 36.375 41.703125 
Q 47.40625 39.59375 52.65625 34.296875 
Q 57.90625 29 57.90625 20.125 
Q 57.90625 9.515625 50.796875 4.046875 
Q 43.703125 -1.421875 29.984375 -1.421875 
Q 24.8125 -1.421875 18.96875 -0.25 
Q 13.140625 0.921875 6.890625 3.21875 
L 6.890625 13.375 
Q 12.890625 10.015625 18.65625 8.296875 
Q 24.421875 6.59375 29.984375 6.59375 
Q 38.421875 6.59375 43.015625 9.90625 
Q 47.609375 13.234375 47.609375 19.390625 
Q 47.609375 24.75 44.3125 27.78125 
Q 41.015625 30.8125 33.5 32.328125 
L 27.484375 33.5 
Q 16.453125 35.6875 11.515625 40.375 
Q 6.59375 45.0625 6.59375 53.421875 
Q 6.59375 63.09375 13.40625 68.65625 
Q 20.21875 74.21875 32.171875 74.21875 
Q 37.3125 74.21875 42.625 73.28125 
Q 47.953125 72.359375 53.515625 70.515625 
z
" id="DejaVuSans-53"/>
     <path d="M 34.28125 27.484375 
Q 23.390625 27.484375 19.1875 25 
Q 14.984375 22.515625 14.984375 16.5 
Q 14.984375 11.71875 18.140625 8.90625 
Q 21.296875 6.109375 26.703125 6.109375 
Q 34.1875 6.109375 38.703125 11.40625 
Q 43.21875 16.703125 43.21875 25.484375 
L 43.21875 27.484375 
z
M 52.203125 31.203125 
L 52.203125 0 
L 43.21875 0 
L 43.21875 8.296875 
Q 40.140625 3.328125 35.546875 0.953125 
Q 30.953125 -1.421875 24.3125 -1.421875 
Q 15.921875 -1.421875 10.953125 3.296875 
Q 6 8.015625 6 15.921875 
Q 6 25.140625 12.171875 29.828125 
Q 18.359375 34.515625 30.609375 34.515625 
L 43.21875 34.515625 
L 43.21875 35.40625 
Q 43.21875 41.609375 39.140625 45 
Q 35.0625 48.390625 27.6875 48.390625 
Q 23 48.390625 18.546875 47.265625 
Q 14.109375 46.140625 10.015625 43.890625 
L 10.015625 52.203125 
Q 14.9375 54.109375 19.578125 55.046875 
Q 24.21875 56 28.609375 56 
Q 40.484375 56 46.34375 49.84375 
Q 52.203125 43.703125 52.203125 31.203125 
z
" id="DejaVuSans-61"/>
     <path d="M 48.6875 27.296875 
Q 48.6875 37.203125 44.609375 42.84375 
Q 40.53125 48.484375 33.40625 48.484375 
Q 26.265625 48.484375 22.1875 42.84375 
Q 18.109375 37.203125 18.109375 27.296875 
Q 18.109375 17.390625 22.1875 11.75 
Q 26.265625 6.109375 33.40625 6.109375 
Q 40.53125 6.109375 44.609375 11.75 
Q 48.6875 17.390625 48.6875 27.296875 
z
M 18.109375 46.390625 
Q 20.953125 51.265625 25.265625 53.625 
Q 29.59375 56 35.59375 56 
Q 45.5625 56 51.78125 48.09375 
Q 58.015625 40.1875 58.015625 27.296875 
Q 58.015625 14.40625 51.78125 6.484375 
Q 45.5625 -1.421875 35.59375 -1.421875 
Q 29.59375 -1.421875 25.265625 0.953125 
Q 20.953125 3.328125 18.109375 8.203125 
L 18.109375 0 
L 9.078125 0 
L 9.078125 75.984375 
L 18.109375 75.984375 
z
" id="DejaVuSans-62"/>
     <path d="M 10.6875 12.40625 
L 21 12.40625 
L 21 0 
L 10.6875 0 
z
" id="DejaVuSans-2e"/>
    </defs>
    <g style="fill:#0000ff;" transform="translate(16.860561 53.415559)scale(0.15 -0.15)">
     <use xlink:href="#DejaVuSans-53"/>
     <use x="63.476562" xlink:href="#DejaVuSans-61"/>
     <use x="124.755859" xlink:href="#DejaVuSans-62"/>
     <use x="188.232422" xlink:href="#DejaVuSans-2e"/>
    </g>
   </g>
   <g id="patch_10">
    <path clip-path="url(#p3534174ded)" d="M 105.663026 180.914179 
C 125.28282 180.914179 144.10168 173.119153 157.97497 159.245863 
C 171.848259 145.372573 179.643286 126.553714 179.643286 106.933919 
C 179.643286 87.314125 171.848259 68.495265 157.97497 54.621975 
C 144.10168 40.748686 125.28282 32.953659 105.663026 32.953659 
C 86.043232 32.953659 67.224372 40.748686 53.351082 54.621975 
C 39.477793 68.495265 31.682766 87.314125 31.682766 106.933919 
C 31.682766 126.553714 39.477793 145.372573 53.351082 159.245863 
C 67.224372 173.119153 86.043232 180.914179 105.663026 180.914179 
z
" style="fill:none;stroke:#0000ff;stroke-linejoin:miter;"/>
   </g>
  </g>
 </g>
 <defs>
  <clipPath id="p3534174ded">
   <rect height="182.824423" width="187.526094" x="11.899979" y="10.942739"/>
  </clipPath>
 </defs>
</svg>
