<?xml version="1.0" encoding="UTF-8" standalone="no"?>
<!-- Created with Inkscape (http://www.inkscape.org/) -->

<svg
   xmlns:dc="http://purl.org/dc/elements/1.1/"
   xmlns:cc="http://creativecommons.org/ns#"
   xmlns:rdf="http://www.w3.org/1999/02/22-rdf-syntax-ns#"
   xmlns:svg="http://www.w3.org/2000/svg"
   xmlns="http://www.w3.org/2000/svg"
   xmlns:sodipodi="http://sodipodi.sourceforge.net/DTD/sodipodi-0.dtd"
   xmlns:inkscape="http://www.inkscape.org/namespaces/inkscape"
   version="1.1"
   id="svg2"
   xml:space="preserve"
   width="196.74631"
   height="173.34029"
   viewBox="0 0 196.74631 173.34029"
   sodipodi:docname="conjA.svg"
   inkscape:version="0.92.4 (5da689c313, 2019-01-14)"><metadata
     id="metadata8"><rdf:RDF><cc:Work
         rdf:about=""><dc:format>image/svg+xml</dc:format><dc:type
           rdf:resource="http://purl.org/dc/dcmitype/StillImage" /><dc:title></dc:title></cc:Work></rdf:RDF></metadata><defs
     id="defs6" /><sodipodi:namedview
     pagecolor="#ffffff"
     bordercolor="#666666"
     borderopacity="1"
     objecttolerance="10"
     gridtolerance="10"
     guidetolerance="10"
     inkscape:pageopacity="0"
     inkscape:pageshadow="2"
     inkscape:window-width="956"
     inkscape:window-height="558"
     id="namedview4"
     showgrid="false"
     inkscape:zoom="1.3614838"
     inkscape:cx="98.373154"
     inkscape:cy="86.670143"
     inkscape:window-x="848"
     inkscape:window-y="158"
     inkscape:window-maximized="0"
     inkscape:current-layer="g10" /><g
     id="g10"
     inkscape:groupmode="layer"
     inkscape:label="conjA"
     transform="matrix(1.3333333,0,0,1.3333333,0,2.3335073e-6)"><g
       id="g12"><g
         id="g14"><path
           d="M 47.062,124.805 C 5.859,106.785 -17.465,57.578 20.945,34.191 70.715,3.891 107.836,-5.285 124.863,6.227 c 32.117,21.707 22.719,37.871 5.504,79.418 -10.211,24.644 -50.785,53.386 -83.305,39.16 z"
           style="fill:none;stroke:#000000;stroke-width:2.83464599;stroke-linecap:round;stroke-linejoin:round;stroke-miterlimit:4;stroke-dasharray:none;stroke-opacity:1"
           id="path16"
           inkscape:connector-curvature="0" /></g><path
         d="m 9.344,19.227 c -1.106,1.859 -2.215,2.257 -3.453,2.347 -0.356,0.043 -0.621,0.043 -0.621,0.574 0,0.176 0.175,0.309 0.398,0.309 0.754,0 1.641,-0.086 2.391,-0.086 0.976,0 1.949,0.086 2.836,0.086 0.175,0 0.531,0 0.531,-0.531 0,-0.309 -0.219,-0.352 -0.442,-0.352 -0.621,-0.047 -1.328,-0.265 -1.328,-0.976 0,-0.356 0.176,-0.664 0.399,-1.063 l 2.168,-3.586 h 7.086 c 0.046,0.574 0.445,4.426 0.445,4.692 0,0.843 -1.461,0.933 -2.039,0.933 -0.399,0 -0.664,0 -0.664,0.574 0,0.309 0.312,0.309 0.398,0.309 1.153,0 2.348,-0.086 3.5,-0.086 0.707,0 2.524,0.086 3.235,0.086 0.132,0 0.484,0 0.484,-0.574 0,-0.309 -0.266,-0.309 -0.664,-0.309 -1.727,0 -1.727,-0.179 -1.816,-1.019 L 20.461,2.926 C 20.418,2.352 20.418,2.219 19.93,2.219 c -0.442,0 -0.575,0.219 -0.754,0.484 z m 3.41,-4.165 5.539,-9.347 0.93,9.347 z"
         style="fill:#000000;fill-opacity:1;fill-rule:nonzero;stroke:none"
         id="path18"
         inkscape:connector-curvature="0" /><path
         d="m 48.168,53.062 c 0,-0.585 0,-0.621 -0.551,-0.621 -1.465,1.504 -3.515,1.504 -4.25,1.504 v 0.731 c 0.477,0 1.832,0 3.043,-0.621 V 66.18 c 0,0.843 -0.074,1.101 -2.164,1.101 h -0.73 v 0.731 c 0.804,-0.071 2.82,-0.071 3.773,-0.071 0.914,0 2.965,0 3.773,0.071 v -0.731 h -0.734 c -2.125,0 -2.16,-0.258 -2.16,-1.101 z"
         style="fill:#000000;fill-opacity:1;fill-rule:nonzero;stroke:none"
         id="path20"
         inkscape:connector-curvature="0" /><path
         d="m 86.586,39.508 2.492,-2.418 c 3.625,-3.223 5.02,-4.469 5.02,-6.817 0,-2.671 -2.09,-4.543 -4.95,-4.543 -2.636,0 -4.359,2.165 -4.359,4.25 0,1.286 1.172,1.286 1.246,1.286 0.403,0 1.211,-0.258 1.211,-1.246 0,-0.586 -0.441,-1.211 -1.246,-1.211 -0.184,0 -0.223,0 -0.293,0.039 0.512,-1.539 1.793,-2.383 3.148,-2.383 2.125,0 3.118,1.906 3.118,3.808 0,1.872 -1.137,3.704 -2.457,5.168 l -4.469,4.981 c -0.258,0.258 -0.258,0.332 -0.258,0.883 h 8.684 l 0.625,-4.071 h -0.551 c -0.149,0.7 -0.293,1.723 -0.551,2.09 -0.144,0.184 -1.684,0.184 -2.199,0.184 z"
         style="fill:#000000;fill-opacity:1;fill-rule:nonzero;stroke:none"
         id="path22"
         inkscape:connector-curvature="0" /><path
         d="m 63.879,91.453 c 1.902,-0.625 3.258,-2.234 3.258,-4.105 0,-1.903 -2.051,-3.223 -4.285,-3.223 -2.344,0 -4.141,1.391 -4.141,3.187 0,0.77 0.512,1.208 1.211,1.208 0.695,0 1.172,-0.512 1.172,-1.208 0,-1.136 -1.102,-1.136 -1.43,-1.136 0.695,-1.172 2.234,-1.465 3.078,-1.465 0.988,0 2.27,0.512 2.27,2.601 0,0.293 -0.071,1.649 -0.657,2.676 -0.699,1.133 -1.503,1.207 -2.089,1.207 -0.184,0.035 -0.735,0.075 -0.918,0.075 -0.18,0.035 -0.328,0.074 -0.328,0.292 0,0.258 0.148,0.258 0.55,0.258 h 1.024 c 1.906,0 2.785,1.575 2.785,3.883 0,3.188 -1.613,3.848 -2.637,3.848 -1.027,0 -2.785,-0.406 -3.59,-1.762 0.805,0.113 1.539,-0.402 1.539,-1.281 0,-0.844 -0.625,-1.32 -1.285,-1.32 -0.586,0 -1.316,0.332 -1.316,1.355 0,2.125 2.16,3.664 4.726,3.664 2.856,0 4.981,-2.125 4.981,-4.504 0,-1.906 -1.5,-3.738 -3.918,-4.25 z"
         style="fill:#000000;fill-opacity:1;fill-rule:nonzero;stroke:none"
         id="path24"
         inkscape:connector-curvature="0" /><path
         d="m 105.238,75.223 v 2.015 c 0,0.844 -0.074,1.102 -1.797,1.102 h -0.476 v 0.73 c 0.953,-0.074 2.164,-0.074 3.152,-0.074 0.988,0 2.199,0 3.188,0.074 v -0.73 h -0.512 c -1.723,0 -1.762,-0.258 -1.762,-1.102 v -2.015 h 2.309 v -0.731 h -2.309 V 63.867 c 0,-0.476 0,-0.625 -0.402,-0.625 -0.184,0 -0.254,0 -0.438,0.293 l -7.183,10.957 v 0.731 z m 0.11,-0.731 h -5.68 l 5.68,-8.722 z"
         style="fill:#000000;fill-opacity:1;fill-rule:nonzero;stroke:none"
         id="path26"
         inkscape:connector-curvature="0" /></g></g></svg>