<?xml version="1.0" encoding="UTF-8" standalone="no"?>
<!-- Created with Inkscape (http://www.inkscape.org/) -->

<svg
   xmlns:dc="http://purl.org/dc/elements/1.1/"
   xmlns:cc="http://creativecommons.org/ns#"
   xmlns:rdf="http://www.w3.org/1999/02/22-rdf-syntax-ns#"
   xmlns:svg="http://www.w3.org/2000/svg"
   xmlns="http://www.w3.org/2000/svg"
   xmlns:sodipodi="http://sodipodi.sourceforge.net/DTD/sodipodi-0.dtd"
   xmlns:inkscape="http://www.inkscape.org/namespaces/inkscape"
   version="1.1"
   id="svg2"
   xml:space="preserve"
   width="196.74631"
   height="173.34029"
   viewBox="0 0 196.74631 173.34029"
   sodipodi:docname="subconj.svg"
   inkscape:version="0.92.4 (5da689c313, 2019-01-14)"><metadata
     id="metadata8"><rdf:RDF><cc:Work
         rdf:about=""><dc:format>image/svg+xml</dc:format><dc:type
           rdf:resource="http://purl.org/dc/dcmitype/StillImage" /><dc:title></dc:title></cc:Work></rdf:RDF></metadata><defs
     id="defs6" /><sodipodi:namedview
     pagecolor="#ffffff"
     bordercolor="#666666"
     borderopacity="1"
     objecttolerance="10"
     gridtolerance="10"
     guidetolerance="10"
     inkscape:pageopacity="0"
     inkscape:pageshadow="2"
     inkscape:window-width="898"
     inkscape:window-height="480"
     id="namedview4"
     showgrid="false"
     inkscape:zoom="1.3614838"
     inkscape:cx="99.842139"
     inkscape:cy="83.732172"
     inkscape:window-x="0"
     inkscape:window-y="27"
     inkscape:window-maximized="0"
     inkscape:current-layer="g10" /><g
     id="g10"
     inkscape:groupmode="layer"
     inkscape:label="subconj"
     transform="matrix(1.3333333,0,0,1.3333333,0,2.3335073e-6)"><g
       id="g12"><g
         id="g14"><path
           d="M 47.062,124.805 C 5.859,106.785 -17.465,57.578 20.945,34.191 70.715,3.891 107.836,-5.285 124.863,6.227 c 32.117,21.707 22.719,37.871 5.504,79.418 -10.211,24.644 -50.785,53.386 -83.305,39.16 z"
           style="fill:none;stroke:#000000;stroke-width:2.83464599;stroke-linecap:round;stroke-linejoin:round;stroke-miterlimit:4;stroke-dasharray:none;stroke-opacity:1"
           id="path16"
           inkscape:connector-curvature="0" /></g><g
         id="g18"
         transform="matrix(1,-0.549238,0.619256,0.958219,0,0)"><path
           d="M 26.402,82.275 C 26.401,99.371 16.739,113.233 4.825,113.233 -7.093,113.234 -16.755,99.371 -16.754,82.275 -16.753,65.178 -7.092,51.319 4.823,51.317 16.74,51.319 26.401,65.177 26.402,82.275 Z"
           style="fill:none;stroke:#000000;stroke-width:2.48773909;stroke-linecap:round;stroke-linejoin:round;stroke-miterlimit:4;stroke-dasharray:none;stroke-opacity:1"
           id="path20"
           inkscape:connector-curvature="0" /></g><path
         d="m 48.043,53.387 c 0,-0.586 0,-0.621 -0.551,-0.621 -1.465,1.504 -3.515,1.504 -4.25,1.504 V 55 c 0.477,0 1.832,0 3.039,-0.621 v 12.125 c 0,0.844 -0.07,1.101 -2.16,1.101 h -0.73 v 0.731 c 0.804,-0.074 2.82,-0.074 3.773,-0.074 0.914,0 2.965,0 3.774,0.074 v -0.731 h -0.735 c -2.125,0 -2.16,-0.257 -2.16,-1.101 z"
         style="fill:#000000;fill-opacity:1;fill-rule:nonzero;stroke:none"
         id="path22"
         inkscape:connector-curvature="0" /><path
         d="M 89.488,37.938 91.98,35.52 C 95.609,32.297 97,31.051 97,28.703 97,26.031 94.914,24.16 92.055,24.16 c -2.637,0 -4.36,2.164 -4.36,4.25 0,1.285 1.172,1.285 1.246,1.285 0.403,0 1.207,-0.257 1.207,-1.246 0,-0.586 -0.437,-1.211 -1.246,-1.211 -0.179,0 -0.218,0 -0.293,0.039 0.516,-1.539 1.797,-2.382 3.153,-2.382 2.125,0 3.113,1.906 3.113,3.808 0,1.871 -1.133,3.703 -2.453,5.168 l -4.469,4.981 c -0.258,0.257 -0.258,0.332 -0.258,0.882 h 8.684 L 97,35.664 h -0.547 c -0.148,0.699 -0.293,1.723 -0.551,2.09 -0.148,0.184 -1.687,0.184 -2.199,0.184 z"
         style="fill:#000000;fill-opacity:1;fill-rule:nonzero;stroke:none"
         id="path24"
         inkscape:connector-curvature="0" /><path
         d="m 63.754,86.852 c 1.902,-0.622 3.258,-2.235 3.258,-4.102 0,-1.906 -2.051,-3.227 -4.285,-3.227 -2.344,0 -4.141,1.395 -4.141,3.188 0,0.769 0.512,1.211 1.211,1.211 0.695,0 1.172,-0.516 1.172,-1.211 0,-1.137 -1.102,-1.137 -1.43,-1.137 0.695,-1.172 2.234,-1.465 3.078,-1.465 0.988,0 2.27,0.516 2.27,2.602 0,0.293 -0.071,1.648 -0.657,2.676 -0.699,1.136 -1.503,1.207 -2.089,1.207 -0.184,0.039 -0.735,0.074 -0.918,0.074 -0.18,0.035 -0.328,0.074 -0.328,0.293 0,0.258 0.148,0.258 0.55,0.258 h 1.024 c 1.906,0 2.785,1.574 2.785,3.883 0,3.187 -1.613,3.847 -2.637,3.847 -1.027,0 -2.785,-0.402 -3.59,-1.758 0.805,0.11 1.539,-0.406 1.539,-1.285 0,-0.84 -0.625,-1.316 -1.285,-1.316 -0.586,0 -1.316,0.328 -1.316,1.355 0,2.125 2.16,3.664 4.726,3.664 2.856,0 4.981,-2.125 4.981,-4.507 0,-1.907 -1.5,-3.739 -3.918,-4.25 z"
         style="fill:#000000;fill-opacity:1;fill-rule:nonzero;stroke:none"
         id="path26"
         inkscape:connector-curvature="0" /><path
         d="m 108.145,69.109 v 2.016 c 0,0.84 -0.075,1.098 -1.797,1.098 h -0.477 v 0.73 c 0.953,-0.07 2.16,-0.07 3.152,-0.07 0.989,0 2.196,0 3.188,0.07 v -0.73 h -0.516 c -1.722,0 -1.757,-0.258 -1.757,-1.098 v -2.016 h 2.308 v -0.734 h -2.308 V 57.75 c 0,-0.477 0,-0.621 -0.403,-0.621 -0.183,0 -0.258,0 -0.441,0.293 l -7.18,10.953 v 0.734 z m 0.109,-0.734 h -5.68 l 5.68,-8.719 z"
         style="fill:#000000;fill-opacity:1;fill-rule:nonzero;stroke:none"
         id="path28"
         inkscape:connector-curvature="0" /></g></g></svg>